<?xml version="1.0" encoding="utf-8"?>
<!-- Generator: Adobe Illustrator 18.1.0, SVG Export Plug-In . SVG Version: 6.00 Build 0)  -->
<svg version="1.1" id="Layer_1" xmlns="http://www.w3.org/2000/svg" xmlns:xlink="http://www.w3.org/1999/xlink" x="0px" y="0px"
	 viewBox="0 0 612 792" enable-background="new 0 0 612 792" xml:space="preserve">
<g>
	<path fill="#FFFFFF" d="M261.4,721.8V522.1c0-12.8,0.8-25,2.5-36.5c1.7-11.5,4.9-22.6,9.6-33.4c-13.5,16.9-31.4,32.1-53.7,45.6
		L45.6,598.1L1,522.1l174.3-101.3c24.3-14.2,49-22.3,74-24.3c-13.5-1.3-26.2-3.9-38-7.6c-11.8-3.7-23.8-9.6-36-17.7L0,268.8l44.6-76
		l175.3,101.3c23.6,13.5,42.9,31.1,57.8,52.7c-6.1-12.2-10.3-24.5-12.7-37c-2.4-12.5-3.5-25.5-3.5-39V70.2h89.2v199.6
		c0,27.7-4.7,52-14.2,73c7.4-10.1,15.7-18.9,24.8-26.3c9.1-7.4,19.4-14.9,30.9-22.3l174.3-100.3l44.6,76L436.7,371.2
		c-11.5,7.4-22.8,13.2-33.9,17.2s-22.8,6.7-35,8.1c12.2,1.4,23.8,3.9,35,7.6c11.1,3.7,22.5,9.3,33.9,16.7L612,523.2l-44.6,76
		L392.1,497.8c-12.2-7.4-23-14.9-32.4-22.3s-17.9-16.6-25.3-27.4c10.8,22.3,16.2,46.6,16.2,73v200.6L261.4,721.8L261.4,721.8z"/>
</g>
</svg>
