<?xml version="1.0" encoding="utf-8"?>
<!-- Generator: Adobe Illustrator 18.1.0, SVG Export Plug-In . SVG Version: 6.00 Build 0)  -->
<svg version="1.1" id="Layer_1" xmlns="http://www.w3.org/2000/svg" xmlns:xlink="http://www.w3.org/1999/xlink" x="0px" y="0px"
	 viewBox="0 0 200 200" enable-background="new 0 0 200 200" xml:space="preserve">
<g>
	<path fill="#0091D9" d="M133,115.1c-2.7,0-5.2,2.6-5.2,7.4c0,5.4,2.4,9.3,6.1,9.3c2.8,0,5-2.1,5-7.8
		C139,119.3,136.9,115.1,133,115.1z"/>
	<path fill="#0091D9" d="M48.5,79.9c0-4.3-1.7-8.1-5.3-10.2c-1.9-1.1-4.4-1.6-7.2-1.6c-2,0-3.1,0.2-3.5,0.5
		c-0.4,0.3-0.5,0.7-0.5,2.4v17.5c0,3.2,1.3,4.1,4.6,4.1C44.9,92.7,48.5,86.6,48.5,79.9z"/>
	<path fill="#0091D9" d="M166.8,93.3c2.8,0,5-2.1,5-7.8c0-4.7-2.1-8.9-6-8.9c-2.7,0-5.2,2.6-5.2,7.4
		C160.7,89.4,163.1,93.3,166.8,93.3z"/>
	<path fill="#0091D9" d="M0,0v200h200V0H0z M166.3,75c5.2,0,9.2,4.2,9.2,9.6c0,7-5.1,10.2-9.2,10.2c-5.8,0-9.3-4.7-9.3-9.5
		C157,78.2,162.5,75,166.3,75L166.3,75z M146.4,76h1.6v-1.1c0-1.4,0.4-2.7,0.6-3.6c0.3-1,1.1-3,3.3-5c1.5-1.3,3.2-2,4.7-2.3
		c1.5,0.1,2.8,0.7,3.5,1.6c0.3,0.4,0.4,1,0.2,1.5c-0.2,0.3-0.3,0.6-0.8,0.9c-0.4,0.3-0.7,0.3-1.2-0.1c-0.7-0.7-2-1.5-3.3-1.5
		c-1.2,0-1.6,0.4-2.3,1.3c-0.5,0.8-0.9,2.9-0.9,6.5V76h4.6c0.2,0,0,1-0.4,1H152v12.6c0,3.1,0,3.2,3,3.6V94h-10v-0.9
		c3-0.2,3-0.5,3-3.2V77h-2.5l-0.2-0.1L146.4,76z M123,93.1c3-0.3,3-0.5,3-3.3v-8.7c0-2.7,0-2.9-3-3.3v-1.1c2-0.4,4-0.9,6-1.8v3.4
		c1-0.6,1.8-1.2,2.8-2c1.2-0.7,2.4-1.3,3.7-1.3c3.3,0,5.5,2.3,5.5,6.4v8.2c0,2.9,0,3,3,3.3V94h-9v-0.9c3-0.3,3-0.6,3-3.5v-7
		c0-3-1-5-4-5c-1.8,0-4,1.1-5,2.4v9.8c0,2.9,0,3,3,3.3V94h-9V93.1z M116.8,67c1.1,0,2,0.9,2,2.2c0,1.1-0.9,2.1-2,2.1
		c-1.1,0-2.1-1-2.1-2.1C114.6,67.9,115.6,67,116.8,67z M24,93c4-0.2,5-0.5,5-4.1V72c0-3.6-1-3.7-4-4V67h11.6c5.5,0,9.4,0.8,12,3.4
		c2.1,2,3.6,5.1,3.6,9.1c0,5.1-2,8.7-5.2,11.2c-3.2,2.5-7.3,3.3-12.5,3.3H24V93z M54,106.4c-3,0.1-3.6,0.7-3.8,2.4
		c-0.1,1.3-0.2,3.2-0.2,7.3V133h-1.5l-17.9-22H31v10.5c0,3.8,0,5.9,0,7.2c0.3,2.2,1,2.6,4,2.8v1.5H25v-1.5c2-0.1,3.5-0.6,3.8-2.7
		c0.1-1.4,0.2-3.4,0.2-7.3v-9.4c0-3.1-0.2-3.1-1-4.2c-0.9-1-2-1.3-4-1.5V105h6.1l17.8,22H48v-10.8c0-4.1-0.4-6-0.5-7.1
		c-0.3-1.9-1.5-2.5-4.5-2.6V105h11V106.4z M58,69.5c-0.9-1-2-1.3-4-1.5V67h6l17.8,21H78V77.7c0-4.1-0.4-6-0.5-7.1
		C77.2,68.6,76,68,73,67.9V67h11v0.9c-3,0.1-3.6,0.7-3.8,2.4c-0.1,1.3-0.2,3.2-0.2,7.3V95h-1.6L60.5,72H60v11c0,3.8,0.5,5.9,0.5,7.2
		c0.3,2.2,1.5,2.6,4.5,2.8v1H55v-1c2-0.1,3.5-0.6,3.8-2.7c0.1-1.4,0.2-3.4,0.2-7.3v-9.4C59,70.5,58.8,70.5,58,69.5z M64.2,130.5
		c1.8,0,3.3-0.8,4.9-2.2l0.7,1.1c-2.7,3.2-5.6,3.9-6.9,3.9c-5.1,0-8.2-4.3-8.2-9.1c0-2.9,1-5.4,2.8-7.3c1.7-1.9,4-2.9,6.1-2.9h0
		c3.6,0,6.4,2.9,6.4,6.4c0,1-0.2,1.2-0.9,1.4c-0.7,0.1-6.1,0.5-11.4,0.6C57.8,128.2,61.2,130.5,64.2,130.5z M101,115.3
		c-3,0.3-2.7,0.7-3.6,3.1C96,121.9,94,127,92.1,133h-1.2c-1.8-5-3.5-9-5.2-13.5c-1.6,4.2-3.4,8.5-5.1,13.5h-1.3c-1.5-5-3-9.8-4.9-15
		c-0.7-2.3-1.3-2.5-3.3-2.7V114h9v1.3c-3,0.4-2.9,0.6-2.3,2.7c1,3.3,1.9,7,3,10h0.1c1.6-4,3.2-9,5-14h1.2c1.5,5,3.3,10,5.1,14h0.1
		c0.9-3,2.2-6.6,3-9.9c0.6-2.3,0.7-2.4-2.3-2.8V114h8V115.3z M103.6,90.6C103,89,102,87,101.1,84h-9.4c-0.6,2-1,3.6-1.6,5.4
		c-1,2.9-1.1,3.3,2.9,3.6v1H83v-1c3-0.4,3.4-0.6,5-4.4l8.8-22.2l1.3-0.4c2.6,7.1,5.6,15.6,8.3,22.8c1.2,3.4,2.1,4.2,4.6,4.2h1.5
		c2.7,0,3.5-0.4,3.5-3.2V81c0-2.6-1-2.8-3-3.1v-1.1c2-0.4,4-0.9,5-1.8v14.8c0,2.8,1,3.1,4,3.3V94h-10l0,0h-1l0,0h-10v-1
		C104,92.7,104.1,92.2,103.6,90.6z M122,131.5v1.5h-12v-1.5c4-0.2,4-0.5,4-4v-5.7c0-0.7-0.1-1.1-0.9-2.5c-1.7-2.9-3.2-5.6-5.4-9.2
		c-1.7-2.9-1.7-3.3-4.7-3.6V105h10v1.4c-3,0.4-3.1,0.9-2.2,2.3c1.8,3.3,3.8,6.7,5.8,9.9c1.7-2.9,3.7-6.8,5-9.5
		c1-2.2,0.5-2.4-2.5-2.8V105h10v1.4c-3,0.4-3.6,0.7-5.4,3.5c-1.9,3.1-3.6,5.6-5.7,9.3c-0.5,0.9-0.9,1.4-0.9,2.4v5.8
		C117,130.9,118,131.3,122,131.5z M133.4,133.3c-5.8,0-9.3-4.5-9.3-9.2c0-7.2,5.5-10.1,9.2-10.1h0c5.2,0,9.2,4,9.2,9.3
		C142.6,130.3,137.5,133.3,133.4,133.3z M156,117.7c-0.5,0.2-0.8,0.1-1.1-0.1c-0.6-0.7-1.3-0.9-2-0.9c-1.2,0-2.9,1.5-3.9,4v7.6
		c0,2.8,1,3.1,4,3.3v1.4h-10v-1.4c3-0.2,3-0.5,3-3.3v-8.7c0-2.9,0-3-2-3.3v-1.1c2-0.3,4-0.9,5-1.8v4.5h0.5c1.3-2,3.1-4.4,5.3-4.4
		c1.5,0,2.5,1.1,2.5,2.1C157.3,116.4,156.8,117.2,156,117.7z M178,132.8l-5.6,0c-2.3-2.4-4.9-5.6-7.5-8.5c-0.6-0.7-0.9-0.9-1.2-0.9
		c-0.2,0-0.7,0-0.7,0.2v4.7c0,2.8,0,3.1,3,3.3v1.4h-9v-1.4c3-0.2,3-0.6,3-3.3v-19.8c0-2.9,0-3.2-3-3.3V104c2-0.3,4-1.1,6-1.6v20
		c1-0.3,2-0.8,2.7-1.4c0.9-0.9,1.9-2.6,2.7-3.8c0.9-1.2,0.6-1.5-1.4-1.8v-1.2l9-0.5v1.2c-3,0.5-3.9,1-5.5,2.6
		c-1.1,1-1.8,1.8-3.7,4.1c0.8,1.2,5.3,6.1,6.8,7.6c1.5,1.5,2.5,2.3,4.5,2.3V132.8z"/>
	<path fill="#0091D9" d="M96.6,71c-1.4,4-2.7,8-4.1,11h8L96.6,71L96.6,71z"/>
	<path fill="#0091D9" d="M62.7,115L62.7,115c-2,0-4,1.9-4.8,5.3c2.5,0,5,0.1,7.6,0c0.8,0,1.1-0.4,1.1-1C66.6,117,65.1,115,62.7,115z
		"/>
</g>
</svg>
