<?xml version="1.0" encoding="utf-8"?>
<!-- Generator: Adobe Illustrator 18.1.0, SVG Export Plug-In . SVG Version: 6.00 Build 0)  -->
<svg version="1.1" id="Layer_1" xmlns="http://www.w3.org/2000/svg" xmlns:xlink="http://www.w3.org/1999/xlink" x="0px" y="0px"
	 viewBox="0 0 226.9 132.5" enable-background="new 0 0 226.9 132.5" xml:space="preserve">
<g>
	<path fill="#FFFFFF" d="M19.3,80.1c0.5,0,1.2,0.1,2.1,0.2v8c-0.5-0.1-1.5-0.1-2.8-0.2c-1.3,0-2.2,0.3-2.7,0.9
		c-0.5,0.6-0.7,1.3-0.7,2c0,0.7,0,1.8,0,3.2h6.4v6.9h-6.4v30.2H5.5V101H0v-6.9h5.4v-2.4c0-4,0.7-6.8,2-8.3c1.4-2.2,4.8-3.4,10.3-3.4
		C18.3,80,18.8,80.1,19.3,80.1z"/>
	<path fill="#FFFFFF" d="M50.2,92.9c0.1,0,0.4,0,0.8,0.1v10c-0.6-0.1-1.2-0.1-1.6-0.1c-0.5,0-0.9,0-1.2,0c-3.9,0-6.6,1.3-7.9,3.8
		c-0.8,1.4-1.1,3.7-1.1,6.7v17.9h-9.9V93.8h9.3v6.5c1.5-2.5,2.8-4.2,3.9-5.1c1.8-1.5,4.2-2.3,7.1-2.3C49.9,92.9,50.1,92.9,50.2,92.9
		z"/>
	<path fill="#FFFFFF" d="M65.5,89.3h-9.9v-9h9.9V89.3z M55.5,93.8h9.9v37.4h-9.9V93.8z"/>
	<path fill="#FFFFFF" d="M97.9,94.5c2.6,1.2,4.8,3,6.5,5.5c1.5,2.2,2.5,4.8,3,7.7c0.3,1.7,0.4,4.2,0.3,7.4H80.4
		c0.2,3.8,1.5,6.4,3.9,7.9c1.5,0.9,3.3,1.4,5.4,1.4c2.2,0,4-0.6,5.4-1.7c0.8-0.6,1.4-1.5,2-2.6h10c-0.3,2.2-1.5,4.5-3.6,6.8
		c-3.4,3.6-8,5.5-14.1,5.5c-5,0-9.4-1.5-13.2-4.6c-3.8-3.1-5.7-8.1-5.7-15c0-6.5,1.7-11.5,5.2-14.9c3.4-3.5,7.9-5.2,13.4-5.2
		C92.4,92.8,95.3,93.3,97.9,94.5z M83.3,103c-1.4,1.4-2.3,3.4-2.6,5.8h16.9c-0.2-2.6-1-4.6-2.6-5.9c-1.6-1.3-3.5-2-5.8-2
		C86.6,100.8,84.7,101.5,83.3,103z"/>
	<path fill="#FFFFFF" d="M142.6,95.9c2.5,2,3.7,5.4,3.7,10.1v25.2h-10v-22.8c0-2-0.3-3.5-0.8-4.5c-1-1.9-2.8-2.9-5.5-2.9
		c-3.3,0-5.6,1.4-6.8,4.2c-0.6,1.5-1,3.4-1,5.7v20.3h-9.8V93.8h9.5v5.5c1.3-1.9,2.4-3.3,3.6-4.2c2-1.5,4.5-2.3,7.6-2.3
		C137,92.9,140.2,93.9,142.6,95.9z"/>
	<path fill="#FFFFFF" d="M174.2,94.4c1.8,1,3.2,2.4,4.3,4.1V80.6h9.9v50.5h-9.5V126c-1.4,2.2-3,3.8-4.8,4.8c-1.8,1-4,1.5-6.7,1.5
		c-4.4,0-8.1-1.8-11-5.3s-4.5-8.1-4.5-13.6c0-6.4,1.5-11.4,4.4-15.1c2.9-3.7,6.9-5.5,11.8-5.5C170.4,92.9,172.4,93.4,174.2,94.4z
		 M176.6,121c1.4-2.1,2.2-4.7,2.2-8c0-4.6-1.2-7.9-3.5-9.8c-1.4-1.2-3.1-1.8-4.9-1.8c-2.9,0-5,1.1-6.3,3.2c-1.3,2.2-2,4.8-2,8.1
		c0,3.5,0.7,6.2,2,8.3c1.4,2.1,3.4,3.1,6.2,3.1S175.1,123.1,176.6,121z"/>
	<path fill="#FFFFFF" d="M202.6,119.2c0.2,1.7,0.7,3,1.3,3.7c1.2,1.3,3.5,2,6.8,2c1.9,0,3.5-0.3,4.6-0.9c1.1-0.6,1.7-1.4,1.7-2.6
		c0-1.1-0.5-1.9-1.4-2.5c-0.9-0.6-4.3-1.6-10.2-3c-4.3-1.1-7.2-2.4-9-3.9c-1.7-1.6-2.6-3.8-2.6-6.7c0-3.5,1.4-6.4,4.1-8.9
		c2.7-2.5,6.5-3.7,11.5-3.7c4.7,0,8.5,0.9,11.4,2.8c2.9,1.9,4.6,5.1,5.1,9.7h-9.8c-0.1-1.3-0.5-2.3-1.1-3c-1.1-1.3-2.9-2-5.5-2
		c-2.1,0-3.7,0.3-4.6,1c-0.9,0.7-1.4,1.4-1.4,2.3c0,1.1,0.5,1.9,1.4,2.4c1,0.5,4.4,1.4,10.2,2.7c3.9,0.9,6.8,2.3,8.8,4.2
		c1.9,1.9,2.9,4.2,2.9,7c0,3.7-1.4,6.7-4.1,9.1c-2.8,2.3-7,3.5-12.8,3.5c-5.9,0-10.2-1.2-13.1-3.7c-2.8-2.5-4.2-5.6-4.2-9.5H202.6z"
		/>
</g>
<g>
	<path fill="#FFFFFF" d="M191.2,64.2c-5.2,0-9.3-1.5-12.2-4.6c-2.9-3-4.4-6.4-4.4-10.2c0-3.1,0.8-5.7,2.3-7.9c1.5-2.2,4-4.3,7.4-6.4
		l0.4-0.3c-1.2-1.5-2.2-3-2.9-4.5c-0.8-1.7-1.2-3.6-1.2-5.4c0-3.7,1.3-6.7,3.8-8.8c2.5-2.1,5.8-3.2,9.8-3.2c3.7,0,6.7,1.1,9.1,3.2
		c2.4,2.2,3.6,5,3.6,8.3c0,3-0.7,5.5-2.2,7.4c-1.3,1.7-3.2,3.3-5.7,4.8l6.1,7.4c0.6-0.9,1-1.9,1.4-3c0.4-1.3,0.6-2.7,0.7-4.1l0-0.6
		h9.6l0,0.6c-0.2,3-0.9,6.1-2.2,9.2c-0.7,1.6-1.8,3.5-3.2,5.4l9.4,11.2h-13l-3.2-3.9c-1.5,1.4-3,2.4-4.3,3.1
		C197.7,63.5,194.6,64.2,191.2,64.2z M194.2,14.1c-3.7,0-6.7,1-9.1,2.9c-2.3,1.9-3.4,4.5-3.4,7.9c0,1.7,0.4,3.4,1.1,4.9
		c0.7,1.6,1.8,3.2,3.2,4.8l0.5,0.5l-1.6,1c-3.2,2-5.6,4.1-7,6.1c-1.4,2-2.1,4.4-2.1,7.3c0,3.4,1.4,6.5,4.1,9.3
		c2.7,2.8,6.5,4.2,11.4,4.2c3.2,0,6.1-0.6,8.6-1.9c1.4-0.7,2.9-1.8,4.5-3.3l0.5-0.4l3.6,4.4h9.9l-8.4-10l0.3-0.4
		c1.6-2,2.7-3.9,3.4-5.5c1.2-2.8,1.9-5.5,2.1-8.2h-7.2c-0.1,1.4-0.3,2.7-0.7,3.9c-0.5,1.4-1.1,2.7-1.9,3.9l-0.4,0.6l-8-9.7L198,36
		c2.6-1.5,4.6-3.1,5.9-4.9c1.3-1.7,1.9-3.9,1.9-6.7c0-3.1-1.1-5.5-3.3-7.5C200.4,15,197.6,14.1,194.2,14.1z M191.8,56.2
		c-2.3,0-4.1-0.7-5.6-2.2c-1.4-1.5-2.2-3.1-2.2-4.9c0-1.6,0.4-3,1.3-4.3c0.8-1.3,2.4-2.7,4.9-4.3l0.4-0.3l9.8,12l-0.4,0.4
		c-0.9,0.9-2.1,1.8-3.6,2.5C195.1,55.8,193.5,56.2,191.8,56.2z M190.5,41.8c-2.1,1.4-3.5,2.6-4.2,3.7c-0.7,1.1-1.1,2.3-1.1,3.6
		c0,1.5,0.6,2.8,1.8,4.1c1.2,1.3,2.8,1.9,4.7,1.9c1.5,0,2.9-0.3,4.2-1c1.1-0.6,2.1-1.2,2.9-1.9L190.5,41.8z M193.4,31.5l-0.3-0.4
		c-1.4-1.7-2.3-2.8-2.7-3.5c-0.7-1.1-1.1-2.1-1.1-3.1c0-1.7,0.7-3,2-3.8c0.8-0.5,1.8-0.8,2.8-0.8c1.6,0,2.8,0.5,3.6,1.4
		c0.8,0.9,1.2,2,1.2,3.1c0,1.6-0.6,3-1.9,4.3c-0.6,0.7-1.6,1.5-3.1,2.4L193.4,31.5z M194,21.1c-0.8,0-1.5,0.2-2.1,0.6
		c-1,0.6-1.4,1.5-1.4,2.8c0,0.8,0.3,1.6,0.9,2.5c0.4,0.6,1.1,1.6,2.3,3c1.1-0.8,1.9-1.4,2.4-2c1.1-1.1,1.6-2.2,1.6-3.5
		c0-0.9-0.3-1.7-0.9-2.4C196.2,21.5,195.3,21.1,194,21.1z"/>
</g>
<path fill="#FFFFFF" d="M87.1,74.3c20.9,0,37.5-16.4,37.5-37.1C125.1,17.6,108.5,0,86.9,0C66.2,0,49.2,16.7,49.2,37.1
	C49.1,57.7,66.1,74.3,87.1,74.3z M80.5,23.8c0-1.5,0.1-3,0.5-4.4c0.8-3.2,3.4-5,6.5-4.7c3,0.3,5.7,2.6,5.7,5.8
	c0.1,5.3,0,10.5,0,15.5c0,0,0,0,0,0c0,6,0,10.1,0,15c0,3.9-2.3,6.8-5.8,7c-3.6,0.3-6.1-1.9-6.7-5.8c-0.2-1.2-0.2-2.3-0.2-3.5
	c0-2.8,0-5.5,0-8.3c0-1.4,0-2.8,0-4.2C80.5,32.2,80.5,28,80.5,23.8z"/>
<path fill="#FFFFFF" d="M113.8,73.1h23.7c3.2-6,6.4-10.8,9.9-16.7c3.6,6.1,6.9,11.7,10.1,16.7h24.2c-7.4-13-14.8-25.1-22.3-37.6
	c6.8-11.7,13.5-23.4,20.4-35.4c-8.5,0-16.2,0-24,0c-2.8,5-5.5,9.3-8.6,14.5c-3.2-5.2-6-9.5-8.8-14.5c-8.1,0-15.8,0-24.1,0
	c7.1,12,14,23.8,20.9,35.6C128.1,48,121.1,60.1,113.8,73.1z"/>
<path fill="#FFFFFF" d="M45.8,29.1c-7,0-14,0-20,0c0-3,0-6,0-8c8,0,16.5,0,25.1,0c-0.5-7-1-14-1.4-20H3.8v72.5c7,0,14,0.1,21-0.1
	c0-8.1,0-15.4,0-23.4c7,0,14,0,21,0C45.8,43.1,45.8,36.1,45.8,29.1z"/>
</svg>
