<?xml version="1.0" encoding="utf-8"?>
<!-- Generator: Adobe Illustrator 15.0.0, SVG Export Plug-In . SVG Version: 6.00 Build 0)  -->
<!DOCTYPE svg PUBLIC "-//W3C//DTD SVG 1.1//EN" "http://www.w3.org/Graphics/SVG/1.1/DTD/svg11.dtd">
<svg version="1.1" id="Layer_1" xmlns="http://www.w3.org/2000/svg" xmlns:xlink="http://www.w3.org/1999/xlink" x="0px" y="0px"
	 width="581.034px" height="56.768px" viewBox="0 0 581.034 56.768" enable-background="new 0 0 581.034 56.768"
	 xml:space="preserve">
<g>
	<path fill="#004184" d="M25.875,43.829c0,6.899-5.567,12.938-12.702,12.938C7.057,56.768,0,53.787,0,43.595V12.858
		C0,5.565,5.253,0,13.016,0c7.371,0,12.859,5.566,12.859,13.33v3.135h-7.997V13.8c0-3.137-1.883-5.803-4.941-5.803
		c-3.998,0-4.939,2.746-4.939,6.508v28.542c0,3.215,1.255,5.723,4.861,5.723c2.196,0,5.019-1.253,5.019-5.645V40.38h7.997V43.829z"
		/>
	<path fill="#004184" d="M31.919,13.643C31.919,4.547,38.818,0,45.326,0c6.508,0,13.408,4.548,13.408,13.643v29.48
		c0,9.097-6.9,13.645-13.408,13.645c-6.508,0-13.407-4.548-13.407-13.645V13.643z M39.917,43.123c0,3.844,2.509,5.646,5.41,5.646
		c2.902,0,5.41-1.803,5.41-5.646v-29.48c0-3.842-2.508-5.646-5.41-5.646c-2.901,0-5.41,1.804-5.41,5.646V43.123z"/>
	<path fill="#004184" d="M65.329,13.643C65.329,4.547,72.228,0,78.736,0c6.508,0,13.408,4.548,13.408,13.643v29.48
		c0,9.097-6.9,13.645-13.408,13.645c-6.508,0-13.407-4.548-13.407-13.645V13.643z M73.326,43.123c0,3.844,2.509,5.646,5.41,5.646
		c2.901,0,5.411-1.803,5.411-5.646v-29.48c0-3.842-2.51-5.646-5.411-5.646c-2.901,0-5.41,1.804-5.41,5.646V43.123z"/>
	<polygon fill="#004184" points="99.208,0.47 107.205,0.47 107.205,48.299 123.043,48.299 123.043,56.297 99.208,56.297 	"/>
	<polygon fill="#897D5E" points="142.811,0.47 166.646,0.47 166.646,7.997 150.808,7.997 150.808,24.385 164.606,24.385 
		164.606,31.912 150.808,31.912 150.808,48.299 166.646,48.299 166.646,56.297 142.811,56.297 	"/>
	<polygon fill="#897D5E" points="171.513,0.47 179.197,0.47 191.271,34.105 191.43,34.105 191.43,0.47 199.425,0.47 199.425,56.297 
		191.898,56.297 179.667,22.739 179.51,22.739 179.51,56.297 171.513,56.297 	"/>
	<polygon fill="#897D5E" points="206.646,0.47 230.482,0.47 230.482,7.997 214.645,7.997 214.645,24.385 228.443,24.385 
		228.443,31.912 214.645,31.912 214.645,48.299 230.482,48.299 230.482,56.297 206.646,56.297 	"/>
	<path fill="#897D5E" d="M235.664,0.47h12.859c9.486,0,14.113,5.568,14.113,16.388c0,6.43-1.803,11.133-6.9,13.957l8.625,25.482
		h-8.469l-7.448-23.835h-4.783v23.835h-7.997V0.47z M243.661,25.404h4.548c5.567,0,6.429-3.137,6.429-8.703
		c0-5.646-0.94-8.704-6.821-8.704h-4.156V25.404z"/>
	<path fill="#897D5E" d="M268.602,13.643c0-9.095,6.9-13.643,13.408-13.643c6.507,0,13.408,4.548,13.408,13.643v2.822h-7.999v-2.822
		c0-3.842-2.509-5.646-5.41-5.646c-2.901,0-5.41,1.804-5.41,5.646v29.481c0,3.843,2.509,5.645,5.41,5.645
		c2.901,0,5.41-1.802,5.41-5.645V32.617h-6.351V25.56h14.35v17.564c0,9.096-6.901,13.644-13.408,13.644
		c-6.508,0-13.408-4.548-13.408-13.644V13.643z"/>
	<polygon fill="#897D5E" points="309.93,32.695 298.952,0.47 307.421,0.47 313.85,22.66 314.007,22.66 320.437,0.47 328.904,0.47 
		317.928,32.695 317.928,56.297 309.93,56.297 	"/>
	<path fill="#897D5E" d="M347.494,0.469h11.997c4.391,0,7.605,1.02,10.35,3.921c2.743,2.901,3.607,6.431,3.607,13.095
		c0,4.86-0.393,8.153-2.273,11.212c-2.196,3.605-5.725,5.802-11.605,5.802h-4.077v21.798h-7.998V0.469z M355.492,26.972h3.842
		c6.509,0,6.586-3.843,6.586-9.409c0-5.254,0-9.567-6.271-9.567h-4.156V26.972z"/>
	<path fill="#897D5E" d="M379.414,0.47h12.857c9.487,0,14.114,5.568,14.114,16.388c0,6.43-1.804,11.133-6.9,13.957l8.625,25.482
		h-8.469l-7.448-23.835h-4.782v23.835h-7.997V0.47z M387.411,25.404h4.548c5.566,0,6.429-3.137,6.429-8.703
		c0-5.646-0.94-8.704-6.821-8.704h-4.155V25.404z"/>
	<path fill="#897D5E" d="M412.353,13.643C412.353,4.547,419.251,0,425.76,0s13.408,4.548,13.408,13.643v29.48
		c0,9.097-6.899,13.645-13.408,13.645s-13.407-4.548-13.407-13.645V13.643z M420.35,43.123c0,3.844,2.51,5.646,5.41,5.646
		c2.901,0,5.41-1.803,5.41-5.646v-29.48c0-3.842-2.509-5.646-5.41-5.646c-2.9,0-5.41,1.804-5.41,5.646V43.123z"/>
	<path fill="#897D5E" d="M445.761,13.643C445.761,4.547,452.66,0,459.168,0s13.409,4.548,13.409,13.643v2.822h-7.998v-2.822
		c0-3.842-2.51-5.646-5.411-5.646c-2.9,0-5.41,1.804-5.41,5.646v29.481c0,3.843,2.51,5.645,5.41,5.645
		c2.901,0,5.411-1.802,5.411-5.645V32.617h-6.351V25.56h14.349v17.564c0,9.096-6.901,13.644-13.409,13.644
		s-13.407-4.548-13.407-13.644V13.643z"/>
	<path fill="#897D5E" d="M479.64,0.47h12.859c9.486,0,14.112,5.568,14.112,16.388c0,6.43-1.803,11.133-6.899,13.957l8.625,25.482
		h-8.47l-7.446-23.835h-4.783v23.835h-7.998V0.47z M487.638,25.404h4.547c5.567,0,6.43-3.137,6.43-8.703
		c0-5.646-0.94-8.704-6.821-8.704h-4.155V25.404z"/>
	<path fill="#897D5E" d="M521.908,0.47h6.665l12.467,55.827h-7.997L530.69,44.3h-10.899l-2.352,11.997h-7.998L521.908,0.47z
		 M525.28,16.543h-0.157l-3.92,20.23h7.997L525.28,16.543z"/>
	<polygon fill="#897D5E" points="544.967,0.47 552.65,0.47 562.923,30.03 563.079,30.03 573.271,0.47 581.034,0.47 581.034,56.297 
		573.037,56.297 573.037,22.345 572.88,22.345 564.961,46.339 560.962,46.339 553.122,22.345 552.965,22.345 552.965,56.297 
		544.967,56.297 	"/>
</g>
</svg>
