<?xml version="1.0" encoding="utf-8"?>
<!-- Generator: Adobe Illustrator 18.1.0, SVG Export Plug-In . SVG Version: 6.00 Build 0)  -->
<svg version="1.1" id="Layer_1" xmlns="http://www.w3.org/2000/svg" xmlns:xlink="http://www.w3.org/1999/xlink" x="0px" y="0px"
	 viewBox="0 0 273 114.7" enable-background="new 0 0 273 114.7" xml:space="preserve">
<g>
	<path fill="#FFFFFF" d="M248.8,15H237v25c0,0,6.6,0,12.3,0s5.7-7.4,5.7-7.4s0-1.2,0-9.7C255,14.4,248.8,15,248.8,15z"/>
	<path fill="#FFFFFF" d="M218,0v55h54V0H218z M249.9,46.4c-13.7,0-19.9,0.2-19.9,0.2V9h15.9c0,0,17.1-2.1,17.1,12.9v10.5
		C263,32.4,263.6,46.4,249.9,46.4z"/>
	<path fill="#FFFFFF" d="M109,55h55V0h-55V55z M122,9h21.3c0,0,9.3-0.7,9.3,9.5S147.1,29,147.1,29s5.9,0.2,5.9,8.1
		c0,7.8,0,8.9,0,8.9h-8v-8.4c0,0,0.1-6.3-4.2-6.3S129,31.4,129,31.4V46h-7V9z"/>
	<path fill="#FFFFFF" d="M145.1,19.5c0-5.3-5.7-4.5-5.7-4.5H129v10.4c0,0,5.6-0.2,10.3-0.2S145.1,24.2,145.1,19.5z"/>
	<path fill="#FFFFFF" d="M0,55h55V0H0V55z M12.3,9l5.2,28.4l6.7-28.6l8.2,0.1l6.7,28.9l5-28.9h7.2l-7.7,37h-9.3l-6-27.2L21.6,46
		h-9.2L4.8,9H12.3z"/>
	<path fill="#FFFFFF" d="M69,15c0,0,9,0,10,0v25c-1,0-10,0-10,0v6h27v-6H86V15h10V8H69V15z"/>
	<polygon fill="#FFFFFF" points="174,15 179,15 179,40 174,40 174,46 205,46 205,34 199,34 199,40 186,40 186,30 196,30 196,24 
		186,24 186,15 199,15 199,21 205,21 205,9 174,9 	"/>
</g>
<g>
	<path fill="#FFFFFF" d="M0,67.9h10.3v46.2H0V67.9z"/>
	<path fill="#FFFFFF" d="M53.9,67.9h10.3v46.2H53.9l-22-29v29H21.5V67.9h9.7l22.7,29.8V67.9z"/>
	<path fill="#FFFFFF" d="M86.2,77.1c-1,0.8-1.5,1.9-1.5,3.2c0,1.3,0.6,2.4,1.8,3.2c1.2,0.8,4,1.7,8.4,2.8c4.4,1.1,7.8,2.7,10.2,4.9
		c2.4,2.2,3.6,5.3,3.6,9.5c0,4.1-1.6,7.5-4.7,10.1c-3.1,2.6-7.2,3.9-12.3,3.9c-7.3,0-13.9-2.7-19.8-8.1l6.2-7.5
		c5,4.4,9.6,6.5,13.8,6.5c1.9,0,3.4-0.4,4.5-1.2c1.1-0.8,1.6-1.9,1.6-3.3c0-1.4-0.6-2.5-1.7-3.3c-1.1-0.8-3.4-1.6-6.8-2.5
		c-5.4-1.3-9.3-2.9-11.8-5c-2.5-2.1-3.7-5.3-3.7-9.7c0-4.4,1.6-7.8,4.7-10.2s7.1-3.6,11.8-3.6c3.1,0,6.2,0.5,9.3,1.6
		c3.1,1.1,5.8,2.6,8.1,4.5l-5.2,7.5c-4-3-8.2-4.6-12.4-4.6C88.5,75.9,87.2,76.3,86.2,77.1z"/>
	<path fill="#FFFFFF" d="M117.4,67.9h10.3v46.2h-10.3V67.9z"/>
	<path fill="#FFFFFF" d="M174.2,73.9c4.4,4,6.6,9.6,6.6,16.8c0,7.2-2.2,12.9-6.5,17.1c-4.3,4.2-10.9,6.3-19.7,6.3h-15.8V67.9h16.3
		C163.5,67.9,169.8,69.9,174.2,73.9z M166.6,101.4c2.5-2.4,3.8-5.8,3.8-10.4c0-4.5-1.3-8-3.8-10.5c-2.5-2.4-6.4-3.7-11.7-3.7h-5.8
		V105h6.5C160.5,105,164.1,103.8,166.6,101.4z"/>
	<path fill="#FFFFFF" d="M222.9,67.9v9.2h-23v9.5h20.7v8.8h-20.7v9.6h23.8v9.1h-34.1V67.9H222.9z"/>
	<path fill="#FFFFFF" d="M270.1,83.2c0,7.4-2.9,12.2-8.8,14.4l11.7,16.5h-12.7l-10.3-14.8h-7.1v14.8h-10.3V67.9h17.5
		c7.2,0,12.3,1.2,15.4,3.6C268.6,74,270.1,77.9,270.1,83.2z M257.7,88.7c1.3-1.1,1.9-3,1.9-5.5c0-2.5-0.7-4.2-2-5.1
		c-1.3-0.9-3.6-1.4-6.9-1.4h-7.7v13.7h7.5C254,90.4,256.4,89.9,257.7,88.7z"/>
</g>
</svg>
