<?xml version="1.0" encoding="utf-8"?>
<!-- Generator: Adobe Illustrator 15.0.0, SVG Export Plug-In . SVG Version: 6.00 Build 0)  -->
<!DOCTYPE svg PUBLIC "-//W3C//DTD SVG 1.1//EN" "http://www.w3.org/Graphics/SVG/1.1/DTD/svg11.dtd">
<svg version="1.1" id="Layer_1" xmlns="http://www.w3.org/2000/svg" xmlns:xlink="http://www.w3.org/1999/xlink" x="0px" y="0px"
	 width="656.714px" height="662.714px" viewBox="496.5 65.857 656.714 662.714"
	 enable-background="new 496.5 65.857 656.714 662.714" xml:space="preserve">
<polygon fill="#FFFFFF" points="843.5,455 843.5,455 801.214,458 794.929,458.571 794.929,458.571 784.214,459.286 782.643,459.429 
	811.214,491.857 811.357,491.857 828.643,520.429 828.643,536.571 809.5,541.286 807.929,725.143 814.357,725.429 814.357,725.429 
	902.214,728.571 1153.214,386.143 1148.785,362 1136.643,363.143 1136.643,357.571 1134.785,358 1133.357,365.143 1111.929,351.857 
	1105.785,342.571 1097.643,351.857 1084.071,337.143 999.071,374.857 940.643,395.143 893.071,415.714 843.929,454.857 
	843.929,454.857 843.929,454.857 "/>
<polygon fill="#FFFFFF" points="777.785,459.714 777.785,459.571 777.214,459.571 774.643,459.714 774.643,459.429 774.643,459.429 
	774.5,458.714 764.929,457.286 764.929,457.286 733.214,452.571 733.071,452.429 692.929,437.143 628.785,454.857 570.5,465.571 
	548.214,475.857 548.214,475.857 541.786,478.857 533.929,478.857 516.071,482.571 511.929,484.286 497.643,495.429 
	497.643,615.714 779.214,727.429 804.785,727.143 804.785,726.714 806.357,538.857 825.5,534 825.5,521.429 808.643,493.714 
	778.643,459.714 "/>
<polygon fill="#FFFFFF" points="786.071,411.429 781.071,405.857 780.214,405 780.214,405 780.214,405 779.5,412.857 779.5,412.857 
	776.929,446.143 777.5,455.857 777.643,455.857 777.643,455.857 779.071,456.143 779.643,456.286 780.785,456.143 780.785,456.143 
	817.785,453.571 842.785,451.857 891.5,412.857 891.643,412.857 939.5,392.143 997.929,371.857 1059.785,344.429 1082.785,334.143 
	1081.785,320.571 1063.071,307.714 1044.357,279.571 1022.785,282.857 1022.785,296.429 987.785,271.857 977.929,252.143 
	971.071,230.429 957.785,228 955.357,218.143 938.643,211 937.643,206 926.929,209.857 923.5,220.286 923.214,220.571 
	843.357,288.571 815.929,329 805.5,341.714 802.357,400.714 787.071,412.571 787.071,412.571 787.071,412.571 "/>
<path fill="#FFFFFF" d="M510.357,481.429l1.714-1.429l3.143-0.571l9.286-3.857h9.285l13.715-2.857l22.285-10.285l58.572-10.715
	l64.856-18l40.857,15.572l40.429,6L773.929,446v-0.143l2.571-33.429L776.929,401l-4.286-4.571v-26.143l-32-26l-6-16.857
	l-7.429-14.715l0,0L714.5,288l-0.429-0.714L698.5,239.143L720.929,230l-4.286-18.143l-10.857-3.571l-4.856-26.428l-17.144-9.714
	l3.572-15.572L657.5,138.714l3.857-20.429l13.285-33.143l-3.143,0.572c-0.571,0.143-1.143,0.143-1.857,0.143
	c-6.571,0-17.714-5.428-19.285-6.143l-20.144-4.429c-2,2.714-9.285,8.429-34.856,17.572c-19,6.714-41.715,8.143-57.429,8.143
	c-10.429,0-18.286-0.571-21-0.857L496.5,133.571l1.143,353.286L510.357,481.429L510.357,481.429L510.357,481.429z"/>
<polygon fill="#FFFFFF" points="729.929,311.571 736.214,322.714 743.214,342.571 775.785,369 775.785,395.429 776.929,396.857 
	776.929,396.857 777.643,397.429 777.643,397 787.5,408.143 799.214,399.143 802.357,340.571 813.5,327.143 840.929,286.429 
	841.214,286.286 920.785,218.429 924.5,207.429 937.357,202.714 938.357,169.286 930.071,166.857 930.071,160.143 903.785,160.143 
	903.785,141.714 907.643,110.571 940.785,108.143 926.5,85.571 913.643,95 901.071,82.429 887.357,80 884.929,65.857 
	863.357,65.857 869.214,88.143 858.357,90.571 860.929,101.714 843.071,101.714 841.929,79 778.071,77.857 778.071,104.714 
	768.643,108.286 771.071,195.714 729.214,203 719.929,206.143 724.643,226.429 723.5,226.857 724.643,231.857 702.5,241 
	717.071,286.429 "/>
</svg>
