<?xml version="1.0" encoding="utf-8"?>
<!-- Generator: Adobe Illustrator 15.0.0, SVG Export Plug-In . SVG Version: 6.00 Build 0)  -->
<!DOCTYPE svg PUBLIC "-//W3C//DTD SVG 1.1//EN" "http://www.w3.org/Graphics/SVG/1.1/DTD/svg11.dtd">
<svg version="1.1" id="Layer_1" xmlns="http://www.w3.org/2000/svg" xmlns:xlink="http://www.w3.org/1999/xlink" x="0px" y="0px"
	 width="618.182px" height="658.098px" viewBox="490.909 70.952 618.182 658.098"
	 enable-background="new 490.909 70.952 618.182 658.098" xml:space="preserve">
<g>
	<path fill="#DC6900" d="M754.967,729.049V527.423c0-12.955,0.835-25.236,2.559-36.845c1.697-11.608,4.955-22.867,9.723-33.775
		c-13.655,17.05-31.728,32.429-54.244,46.057L536.966,604.184l-45.033-76.761l176.038-102.347
		c24.563-14.329,49.45-22.517,74.714-24.564c-13.655-1.346-26.448-3.932-38.381-7.676c-11.931-3.743-24.051-9.723-36.333-17.911
		L490.909,271.554l45.033-76.761l177.062,102.349c23.863,13.655,43.31,31.405,58.339,53.221
		c-6.141-12.281-10.424-24.725-12.794-37.356c-2.397-12.605-3.582-25.748-3.582-39.404V70.952h90.066v201.625
		c0,27.984-4.768,52.547-14.328,73.691c7.488-10.234,15.863-19.096,25.074-26.61c9.212-7.487,19.608-15.001,31.217-22.516
		l176.038-101.324l45.033,76.76L932.029,374.924c-11.608,7.515-23.028,13.306-34.287,17.399c-11.258,4.094-23.028,6.814-35.31,8.188
		c12.281,1.374,24.052,3.933,35.31,7.676c11.259,3.771,22.678,9.4,34.287,16.888l177.062,103.372l-45.033,76.761L886.996,502.859
		c-12.282-7.514-23.19-15.002-32.752-22.516c-9.562-7.515-18.099-16.727-25.587-27.635c10.908,22.517,16.376,47.08,16.376,73.691
		V729.05L754.967,729.049L754.967,729.049z"/>
</g>
</svg>
