<?xml version="1.0" encoding="utf-8"?>
<!-- Generator: Adobe Illustrator 18.1.0, SVG Export Plug-In . SVG Version: 6.00 Build 0)  -->
<svg version="1.1" id="Layer_1" xmlns="http://www.w3.org/2000/svg" xmlns:xlink="http://www.w3.org/1999/xlink" x="0px" y="0px"
	 viewBox="39.3 125.2 539.3 551" enable-background="new 39.3 125.2 539.3 551" xml:space="preserve">
<g>
	<g>
		<g>
			<path fill="#FFFFFF" d="M66.5,589.4c-3.5,0-6.5,0.5-9.5,1.5c-3,1-5.5,2.2-7.5,4.2c-2,1.7-3.7,4-5,6.7c-1.2,2.7-1.7,5.7-1.7,9
				s0.5,5.7,1.5,8c1,2,2.2,4,3.7,5.5c-1.7,1.7-3.5,3.5-4.5,5.7c-1.2,2-1.7,4.5-1.7,7c0,2,0.5,4,1.5,5.5c1,1.7,2.5,3,4.2,4
				c-1.2,1-2.5,2-3.5,3c-1,1-2,2.2-2.7,3.5c-0.7,1.2-1.2,2.5-1.5,3.7c-0.2,1.2-0.5,2.7-0.5,4c0,2.2,0.5,4.5,1.5,6.2
				c1,2,2.7,3.5,4.7,5c2.2,1.5,5,2.5,8.5,3.2c3.5,0.7,7.7,1.2,12.7,1.2s9.5-0.5,13.2-1.5s7-2.5,9.5-4.5c2.5-1.7,4.5-4,5.7-6.5
				c1.2-2.5,2-5.2,2-8c0-2.5-0.5-5-1.5-7c-1-2-2.2-3.7-4-5.2c-1.7-1.5-4-2.5-6.5-3.5c-2.5-0.7-5.5-1.2-8.7-1.5l-13.9-0.5
				c-2,0-3.5-0.5-4.7-1.2c-1.2-0.7-1.7-1.7-1.7-3c0-1,0.2-1.7,0.5-2.5c0.5-0.7,1-1.5,1.5-2c1,0.5,2.2,1.2,4,1.5
				c1.7,0.5,3.5,0.7,5.2,0.7c3.7,0,7-0.5,10-1.5c3-1,5.5-2.2,7.5-4c2-1.7,3.7-4,4.7-6.7c1.2-2.5,1.7-5.5,1.7-9c0-1.5-0.2-3.7-0.5-5
				c-0.5-1.2-1-2-2-4.5h4.7v-11.4C92.8,589.6,68.2,589.4,66.5,589.4z M55.7,654.6c0.5-0.7,1-1.5,1.5-2.2c0.7-0.7,1.5-1.5,2.7-2.2
				l11.7,0.2c2.7,0,4.7,0.7,6.5,1.7c1.5,1,2.2,2.5,2.2,4.5c0,1.2-0.2,2.2-0.7,3.2c-0.5,1-1.2,2-2.2,2.7c-1,0.7-2.5,1.5-4,2
				c-1.7,0.5-3.7,0.7-6.2,0.7c-4,0-7-0.5-9.2-1.7c-2.2-1.2-3.2-2.7-3.2-5c0-0.7,0-1.2,0.2-2C55,656.1,55.3,655.3,55.7,654.6z
				 M75.9,614.3c-0.5,1.2-1,2.2-1.7,3.2c-0.7,1-1.7,1.5-3,2.2c-1.2,0.5-2.7,0.7-4.2,0.7c-3,0-5.5-0.7-7.2-2.5c-1.7-1.7-2.5-4-2.5-7
				c0-1.2,0.2-2.7,0.5-3.7c0.5-1.2,1-2.2,1.7-3.2c0.7-1,1.7-1.7,3-2.2s2.5-0.7,4.2-0.7c3.2,0,5.5,0.7,7.2,2.5
				c1.7,1.7,2.5,4.2,2.5,7.2C76.4,611.8,76.4,613,75.9,614.3z"/>
		</g>
		<path fill="#FFFFFF" d="M158,597.3c-2.5-2.7-5.7-4.7-9.5-6.2c-3.7-1.5-8.2-2-13.4-2s-10,0.7-13.9,2.5c-4,1.5-7.2,3.7-10,6.7
			c-2.7,3-4.5,6.5-6,10.5c-1.2,4-2,8.5-2,13.4c0,5,0.5,9.7,1.7,13.7s3,7.2,5.5,10c2.5,2.7,5.7,4.7,9.5,6.2c3.7,1.5,8.2,2.2,13.4,2.2
			c5.2,0,10-0.7,13.9-2.5c4-1.5,7.2-4,10-6.7c2.7-3,4.5-6.5,6-10.5c1.2-4,2-8.5,2-13.4c0-5.2-0.5-9.7-1.7-13.7
			C162.3,603.6,160.3,600.1,158,597.3z M147.6,629.9c-0.5,2.5-1.5,4.5-2.5,6.2c-1.2,1.7-2.7,3-4.5,3.7c-1.7,1-4,1.2-6.5,1.2
			c-2.7,0-5-0.5-6.7-1.5c-1.7-1-3.2-2.2-4.2-4.2c-1-1.7-1.7-3.7-2.2-6.2c-0.5-2.5-0.7-5-0.7-8s0.2-5.7,1-8.2
			c0.5-2.5,1.5-4.5,2.7-6.2c1.2-1.7,2.7-3,4.5-4c1.7-1,4-1.2,6.2-1.2c2.7,0,5,0.5,6.7,1.5s3.2,2.5,4.2,4.2c1,1.7,1.7,3.7,2.2,6.2
			c0.5,2.5,0.7,5,0.7,8C148.6,624.7,148.3,627.5,147.6,629.9z"/>
		<path fill="#FFFFFF" d="M209.8,603.8c0.7,0,1.5-0.5,2-1.5c0.5-1,0.7-2.7,0.7-5c0-1.2,0-2.2-0.2-3.2c0-0.7-0.2-1.5-0.5-2
			s-0.5-0.5-0.7-0.7c-0.2-0.2-0.7,0-1.2,0h-12.4v-16.9l-17.4,6.5v10.7h-6c-0.5,0-0.7-0.2-1.2,0c-0.2,0.2-0.5,0.5-0.7,1
			c-0.2,0.5-0.5,1-0.5,2c0,0.7-0.2,2-0.2,3.2c0,2.5,0.2,4,0.7,5c0.5,1,1,1.5,2,1.5h6v29.6c0,3.5,0.7,6.7,1.5,9.2
			c0.7,2.5,2,4.7,3.7,6.5c1.5,1.7,3.7,3,6,3.7c2.5,0.7,5.2,1.2,8.5,1.2c1.2,0,2.5,0,3.7-0.2c1.2-0.2,2.2-0.2,3.2-0.5s2-0.5,2.7-0.7
			c0.7-0.2,1.2-0.7,1.7-1c0.5-0.5,0.7-1.2,1-2.2c0.2-1,0.2-2.5,0.2-4.5c0-1.2,0-2.2-0.2-3c0-0.7-0.2-1.5-0.2-1.7
			c-0.2-0.5-0.2-0.7-0.5-1c-0.2-0.2-0.5-0.2-0.7-0.2s-0.7,0-1,0.2c-0.2,0.2-0.7,0.2-1.2,0.5s-1.2,0.2-1.7,0.5
			c-0.7,0.2-1.5,0.2-2.2,0.2c-2.5,0-4.2-0.7-5.2-2.2s-1.5-4-1.5-7v-27.1h12.2V603.8z"/>
		<path fill="#FFFFFF" d="M274.5,596.3c-1.7-2.2-3.7-4-6.5-5.2c-2.7-1.2-6-2-10-2c-3.2,0-6.5,0.7-9.5,2c-3,1.2-6.5,3.5-9,6.2V559
			c0,0,0,0,0-0.2l-15.7,6.5c0,0,0.7,0,0.7,0.2v85.1c0,0.5-0.2,1.7,0,2c0,0-0.2-1.5-0.2,1h15.4c0-2.5-0.5-1-0.5-1c0.2-0.2,0-1.5,0-2
			v-38.3c2.5-3,4.7-5,7-6.7c2-1.5,4.5-2.2,6.5-2.2c1.7,0,3.2,0.2,4.5,1c1.2,0.7,2.2,1.5,3,2.7s2.2,2.5,2.7,4.2
			c0.5,1.5,1.5,3.7,1.5,6.7v32.9c0,0.5-0.7,1.7-0.5,2c0,0-1-1.5-0.7,1h15.4c0-2.5,0.2-1,0.2-1c0.2-0.2,0.5-1.5,0.5-2v-35.3
			c0-4.2-0.5-8-1.2-11C277.5,601.3,276.3,598.6,274.5,596.3z"/>
		<path fill="#FFFFFF" d="M447.7,596.3c-1.5-2.2-3.7-4-6.5-5.2c-2.7-1.2-6-2-9.7-2c-1.7,0-3.2,0.2-5,0.5c-1.5,0.5-3.2,1-4.7,2
			c-1.5,0.7-3.2,2-5,3.2s-3.2,3-5,4.7c-0.7-1.5-1.7-3-2.7-4.2c-1-1.2-2.2-2.5-3.7-3.2c-1.5-1-3.2-1.7-5-2.2c-2-0.5-4-0.7-6.5-0.7
			c-3.5,0-7,0.7-10.2,2.5c-3.2,1.7-7.2,4.2-9.7,7.7v-8.5l-14.9,5.2v54.5c0,0.5,0.7,1.7,1,2c0,0,0.5-1.5,0.5,1h15.4c0-2.5,0-1,0-1
			c0.2-0.2,0.2-1.5,0.2-2v-38.3c2.5-3,4.5-5,6.5-6.7c2-1.5,4-2.2,6-2.2c1.5,0,3,0.2,4.2,1c1.2,0.7,2.2,1.5,3,2.7
			c0.7,1.2,0.5,2.5,0.7,4.2c0.2,1.5-0.2,3.5-0.2,5.2v34.1c0,0.5,1,1.7,1.2,2c0,0,1-1.5,1,1h15.4c0-2.5,0.7-1,0.7-1
			c0.2-0.2,1.2-1.5,1.2-2v-38.3c0-3,3.5-5,5.5-6.7c2-1.5,3.5-2.2,5.5-2.2c1.5,0,2.7,0.2,4,1c1.2,0.7,2,1.5,2.7,2.7
			c0.7,1.2,1.2,2.5,1.7,4.2c0.2,1.5,0.5,3.5,0.5,5.2v34.1c0,0.5,0,1.7,0.2,2c0,0-0.2-1.5-0.2,1h15.4c0-2.5,0.7-1,0.7-1
			c0.2-0.2,1-1.5,1-2v-36.8c0-3.2-1-6.5-1.7-9.5C451.2,601.1,449.5,598.6,447.7,596.3z"/>
		<path fill="#FFFFFF" d="M471.1,594.1v57.2c0,0.2,0,0.5,0,0.7s0.2,0.5,0.5,0.5c0.2,0.2,0.7,0.2,1.2,0.2c0.5,0,1,0.2,1.7,0.2
			s1.5,0,2-0.2c0.5,0,1-0.2,1.2-0.2c0.2-0.2,0.5-0.2,0.5-0.5c0.2-0.2,0.2-0.5,0.2-0.7v-61l0.2,0.5l-7.7,3.7
			C471.1,594.9,471.1,594.1,471.1,594.1z"/>
		<path fill="#FFFFFF" d="M474.6,578.4c2,0,3.2-0.2,4-1c0.7-0.7,1-2.2,1-4.2c0-2-0.2-3.5-1-4.2c-0.7-0.7-2-1-4-1s-3.2,0.2-4,1
			c-0.7,0.7-1,2.2-1,4.2c0,2,0.2,3.5,1,4.2C471.4,578.2,472.9,578.4,474.6,578.4z"/>
		<path fill="#FFFFFF" d="M529.9,625c-1.5-1.2-3-2.2-4.7-3.2c-1.7-1-3.7-1.7-5.5-2.5c-2-0.7-3.7-1.5-5.5-2.2
			c-1.7-0.7-3.5-1.5-4.7-2.5c-1.5-1-2.5-2-3.5-3.5c-0.7-1.2-1.2-3-1.2-4.7c0-1.5,0.2-2.7,0.7-3.7c0.5-1.2,1.2-2.2,2.2-3
			s2.2-1.5,3.7-2c1.5-0.5,3.2-0.7,5.2-0.7c2,0,3.7,0.2,5.5,0.7c1.5,0.5,3,1,4,1.5c1.2,0.5,2,1,2.7,1.5c0.7,0.5,1.2,0.7,1.5,0.7
			s0.5,0,0.7-0.2s0.2-0.5,0.5-0.7c0.2-0.2,0.2-0.7,0.2-1c0-0.5,0-1,0-1.5s0-1,0-1.2s0-0.7-0.2-1c0-0.2-0.2-0.5-0.2-0.7
			c-0.2-0.2-0.5-0.5-1-1c-0.5-0.5-1-0.7-2-1.2c-0.7-0.5-2-1-3-1.2c-1.2-0.5-2.5-0.7-4-1c-1.5-0.2-3-0.2-4.5-0.2
			c-3.5,0-6.5,0.5-9,1.5c-2.5,1-4.5,2.2-6.2,3.7c-1.5,1.5-2.7,3.2-3.5,5.2c-0.7,2-1.2,4-1.2,6c0,2.5,0.5,4.7,1.2,6.5
			c0.7,1.7,2,3.5,3.5,4.7s3,2.5,4.7,3.2c1.7,1,3.7,1.7,5.5,2.5c2,0.7,3.7,1.5,5.5,2.2c1.7,0.7,3.5,1.5,4.7,2.5c1.5,1,2.5,2,3.5,3.2
			c0.7,1.2,1.2,2.7,1.2,4.5c0,1.7-0.2,3.5-1,4.7c-0.7,1.2-1.5,2.5-2.7,3.2c-1.2,0.7-2.7,1.5-4.2,2c-1.7,0.5-3.5,0.7-5.5,0.7
			c-2.5,0-4.7-0.2-6.5-1c-2-0.5-3.5-1.2-4.7-2s-2.5-1.2-3.5-2c-1-0.5-1.5-1-2-1c-0.2,0-0.5,0-0.7,0.2s-0.5,0.5-0.5,0.7
			s-0.2,0.7-0.2,1c0,0.5-0.2,1-0.2,1.5c0,1,0,2,0.2,2.5c0.2,0.7,0.5,1.2,1,1.5c0.5,0.5,1.2,1,2.2,1.5c1,0.5,2.2,1,3.7,1.5
			c1.5,0.5,3,1,5,1.2c1.7,0.2,3.7,0.5,5.7,0.5c3.2,0,6.2-0.5,9-1.2c2.7-0.7,5-2,7-3.5c2-1.5,3.5-3.5,4.5-5.7c1-2.2,1.5-4.7,1.5-7.5
			c0-2.5-0.5-4.5-1.2-6.2C532.4,627.7,531.4,626.2,529.9,625z"/>
		<path fill="#FFFFFF" d="M577.9,645.6c0-0.2-0.2-0.5-0.5-0.5c-0.2,0-0.2-0.2-0.5-0.2s-0.7,0-1.2,0.2s-1,0.5-1.7,0.7
			s-1.5,0.5-2.2,0.7c-0.7,0.2-1.7,0.2-2.7,0.2c-3.5,0-5.2-1.2-6.5-3.5c-1.2-2.2-1.5-5.7-1.5-10.2v-34.8h15.4c0.5,0,1-0.5,1.5-1.2
			c0.2-0.5,0.5-1.5,0.5-2.5c0-0.5,0-1.2-0.2-1.5c0-0.5-0.2-0.7-0.5-1c-0.2-0.2-0.5-0.7-0.5-0.7c-0.2-0.2-0.5-0.2-0.7-0.2H561v-14.2
			c0-0.2-0.5-0.5-0.5-0.7c-0.2-0.2-0.5-0.5-0.7-0.5c-0.2-0.2-0.7-0.2-1.2-0.2c-0.5,0-1.2,0-2,0s-1.5,0-1.7,0c-0.5,0-1,0.2-1.2,0.2
			c-0.2,0.2-1.2,0.2-1.5,0.5c0,0.2-1,0.5-1,0.7v14.2h-7.2c-0.2,0-0.5,0.2-0.7,0.2c-0.2,0.2-0.5,0.5-0.5,0.7c-0.2,0.2-0.2,0.7-0.5,1
			c0,0.5-0.2,1-0.2,1.5c0,1,0.2,2.2,0.5,2.7c0.2,0.5,0.7,1.2,1.5,1.2h7.2v35.8c0,3.2,1,6.2,1.7,8.5c0.5,2.5,2,4.5,3.2,6
			c1.2,1.5,3.2,2.7,5.2,3.5c2,0.7,4.5,1.2,7.5,1.2c0.7,0,1.7,0,2.7-0.2c1,0,1.7-0.2,2.5-0.5c0.7-0.2,1.5-0.5,2.2-0.7
			c0.7-0.2,1-0.5,1.5-1c0.2-0.2,0.5-0.7,0.7-1.2c0.2-0.5,0.2-1.2,0.2-2.2c0-0.5,0-1,0-1.5C577.9,646.1,577.9,645.9,577.9,645.6z"/>
		<path fill="#FFFFFF" d="M362.1,653.3c0.7,0.2,1.5-0.2,2.5,0c1,0,2.5,0,4,0c1.5,0,3,0,4-0.2c1,0,2,0.5,2.5,0.2c0.5-0.2,1,0,1.2,0
			h-15.4C361.1,653.6,361.6,653.1,362.1,653.3z"/>
		<g>
			<path fill="#FFFFFF" d="M341.7,633.7c0-0.5,0.2-1,0.2-1.7c0-3.7,0-6.5,0-10.2c0-1.7,0-4,0-6.5V614v-3.7c0-4.7,0.2-10.5,0.2-15.2
				c0-4.5-0.7-4.5-1-4.5c-0.7,0-2,0.5-3.7,1.5c-4.7,2.5-8.7,2.5-13.2,0c-3-1.5-6.7-2.5-10.5-2.5c-8.5,0-15.4,4.2-18.4,11.2
				c-4.7,10.7-5.2,22.4-1.5,34.8c3.7,13.2,13.7,15.2,19.2,15.2c3.7,0,8-1,11.9-2.7c2.5-1,4-1,6.2,0.5s5,2.2,7.7,2.2
				c3,0,5.5-0.7,8-1.2c0.2,0,0.5-0.2,0.5-0.2v-8C341.7,641.1,341.5,636.4,341.7,633.7z M326.5,632.2l-2,1.2c-1,0.5-2,1.2-3,1.7
				c-1.7,1-3.7,1.5-5.2,1.5c-3.7,0-6.7-2.5-8.2-6.5c-2-5.2-2.2-10.7-0.7-16.4c2-7.7,5.7-9.2,8.7-9.2c2.5,0,5,1,8,3.2
				c0.7,0.5,1.2,1,1.7,1.5c0.2,0.2,0.5,0.5,0.7,0.7l0.5,0.5L326.5,632.2z"/>
		</g>
	</g>
	<rect x="48.8" y="296.4" fill="#FFFFFF" width="84.1" height="228.5"/>
	<polygon fill="#FFFFFF" points="237.2,486.8 237.2,362.4 219.8,362.4 219.8,342.5 172.5,342.5 172.5,362.4 155.1,362.4 
		155.1,486.8 142.6,486.8 142.6,524.2 153.8,524.2 237.9,524.2 247.1,524.2 247.1,486.8 	"/>
	<polygon fill="#FFFFFF" points="359.1,250.4 359.1,230.5 326.8,230.5 326.8,215.6 316.8,215.6 316.8,148.4 311.8,148.4 
		311.8,215.6 301.9,215.6 301.9,230.5 272,230.5 272,250.4 254.6,250.4 255.9,524.2 374.8,524.2 376.6,250.4 	"/>
	<polygon fill="#FFFFFF" points="501.7,524.2 387.3,524.2 387.3,125.2 501.7,188.7 	"/>
	<polygon fill="#FFFFFF" points="565.7,340 565.7,330 525.9,330 525.9,340 513.4,340 513.4,524.2 526.6,524.2 565.2,524.2 
		578.2,524.2 578.2,340 	"/>
</g>
</svg>
