<?xml version="1.0" encoding="utf-8"?>
<!-- Generator: Adobe Illustrator 18.1.0, SVG Export Plug-In . SVG Version: 6.00 Build 0)  -->
<svg version="1.1" id="Layer_1" xmlns="http://www.w3.org/2000/svg" xmlns:xlink="http://www.w3.org/1999/xlink" x="0px" y="0px"
	 viewBox="142.6 196.6 327 398.7" enable-background="new 142.6 196.6 327 398.7" xml:space="preserve">
<path fill="#FFFFFF" d="M142.6,196.6v337.7H226v61h89.3v-61h154.3V196.6H142.6z M302.4,582.7h-64.5V424.9h-39.1V386
	c12.2,0,18.2-0.7,28.9-5.5c10-4.7,16.2-12.7,20.2-18.2h54.5V582.7z M303.6,318.1h-36.8l-35.6-52.3h-0.7v52.3h-31.6V224h39.6
	l31.6,52.3h0.7L270,224h33.6V318.1z M391,290v28.1h-32.9V290l-38.3-65.7h40.3l14.7,37.6l16.7-37.6h39.1L391,290z"/>
</svg>
