<?xml version="1.0" encoding="utf-8"?>
<!-- Generator: Adobe Illustrator 15.0.0, SVG Export Plug-In . SVG Version: 6.00 Build 0)  -->
<!DOCTYPE svg PUBLIC "-//W3C//DTD SVG 1.1//EN" "http://www.w3.org/Graphics/SVG/1.1/DTD/svg11.dtd">
<svg version="1.1" id="Layer_1" xmlns="http://www.w3.org/2000/svg" xmlns:xlink="http://www.w3.org/1999/xlink" x="0px" y="0px"
	 width="413.444px" height="115.567px" viewBox="0 0 413.444 115.567" enable-background="new 0 0 413.444 115.567"
	 xml:space="preserve">
<polygon fill="#004184" points="287.999,0 281.179,5.297 261.602,30.729 270.199,30.347 260.594,77.546 250.816,23.096 
	241.351,20.654 234.53,25.962 226.948,66.853 216.992,11.89 208.067,12.451 201.245,17.754 217.896,101.213 227.711,104.626 
	234.53,99.317 242.233,57.659 250.866,112.159 261.284,115.567 268.104,110.256 284.506,40.323 287.696,44.712 294.521,39.402 "/>
<path fill="#004184" d="M41.455,41.669h-5.778c-0.708,0-0.708,0.202-0.969,0.913L24.222,73.188
	c-0.436,1.338-0.795,3.481-1.236,5.481h-0.178c-0.352-2-0.713-4.13-1.156-5.466L11.177,42.562c-0.261-0.711-0.261-0.893-0.969-0.893
	h-5.78c-0.711,0-1.058,0.381-1.058,1.098L0,101.508c0,0.7,0.352,1.161,1.056,1.161h5.165c0.699,0,1.058-0.447,1.058-1.147
	l1.325-45.603c0.094-1.766,0-4.007-0.089-5.519l0.183-0.189c0.087,1.955,0.361,4.172,1.069,6.297l10.294,31.026
	c0.263,0.793,0.531,1.135,1.326,1.135h2.659c0.808,0,0.982-0.345,1.339-1.138l10.74-30.945c0.708-2.125,0.967-4.389,1.06-6.345
	l0.185,0.157c-0.094,1.513-0.185,3.72-0.094,5.487l1.419,45.644c0,0.698,0.352,1.141,1.063,1.141h5.152
	c0.708,0,1.064-0.447,1.064-1.147l-3.455-58.709C42.519,42.095,42.159,41.669,41.455,41.669"/>
<path fill="#004184" d="M80.161,88.478V71.096c0-7.462-3.468-12.402-13.673-12.402c-5.689,0-13.856,2.558-13.856,4.063
	c0,0.436,0.091,0.704,0.269,1.14l1.158,3.109l0.615,0.446c0.798,0,4.882-2.843,10.829-2.843c6.308,0,7.907,2.843,7.907,7.992V75.8
	c-5.51,0.187-23.257,0.459-23.257,15.413c0,7.876,4.521,12.491,11.539,12.491c7.368,0,11.718-4.977,12.783-5.956
	c0.438,1.247,2.04,5.956,3.368,5.956l0.723-0.264l3.459-2.134l0.804-0.717c0-0.525-1.247-2.218-1.601-3.283
	C80.431,94.839,80.161,94.034,80.161,88.478 M73.41,92.714c-1.418,1.248-5.51,5.479-10.127,5.479c-4.524,0-6.48-3.973-6.48-7.51
	c0-9.27,12.707-9.27,16.607-9.358V92.714z"/>
<path fill="#004184" d="M104.562,58.694c-5.143,0-8.346,4.94-10.651,7.417c-0.356-1.95-1.864-7.417-3.461-7.417l-0.891,0.456
	l-3.288,2.018c-0.169,0.084-0.534,0.347-0.619,0.886c0,0.254,0.426,0.962,1.137,2.192c1.241,2.218,1.655,5.14,1.655,6.738v30.443
	c0,0.7,0.041,1.242,0.767,1.242h4.611c0.708,0,0.622-0.542,0.622-1.242V72.143c3-2.303,5.453-6.923,8.565-6.923
	c1.688,0,2.589,0.798,3.041,0.798l0.585-0.615l1.976-4.5l0.283-0.706C108.894,59.4,106.59,58.694,104.562,58.694"/>
<path fill="#004184" d="M126.064,79.649l14.996-16.598c0.276-0.268,0.633-0.624,0.633-1.069l-0.539-0.619l-3.107-2.131l-1.065-0.538
	c-0.439,0-0.656,0.457-0.926,0.722l-17.613,20.056v-40.03c0-0.449-0.054-1.149-0.662-1.149c-0.624,0.085-0.381,0-1.096,0.169
	l-4.531,1.056c-0.352,0.103-0.711,0.457-0.711,1.071v60.844c0,0.7,0.511,1.237,1.219,1.237h4.617c0.708,0,1.164-0.537,1.164-1.237
	V80.669h0.083l18.109,22.313c0.178,0.276,0.523,0.723,0.975,0.723l1.065-0.523l3.102-2.122l0.531-0.618
	c0-0.441-0.446-0.797-0.615-1.064L126.064,79.649z"/>
<path fill="#004184" d="M158.668,58.714c-11.012,0-17.556,9.455-17.556,22.404c0,13.565,6.898,22.51,18.725,22.599
	c6.555,0,13.999-3.608,13.999-4.589l-0.263-0.703l-1.499-3.741l-0.543-0.526c-0.53,0-5.139,3.657-10.905,3.657
	c-10.121,0-12.264-9.818-12.264-15.266h25.474c0.976,0,0.976-0.708,0.976-1.956C174.812,73.007,173.487,58.714,158.668,58.714
	 M148.362,77.042c0-4.396,1.784-12.815,9.958-12.815c7.718,0,9.228,8.246,9.228,12.815H148.362z"/>
<path fill="#004184" d="M203.606,95.958l-0.619-0.539c-0.793,0-4.197,2.396-8.366,2.396c-5.328,0-5.177-3.64-5.177-7.177V65.669
	h11.409c0.53,0,0.978-0.465,1.165-0.915l1.141-3.513l0.091-0.787c0-0.526-0.441-0.785-0.976-0.785h-12.83V46.264
	c0-0.53-0.151-0.966-0.597-0.966l-0.688,0.086l-4.724,1.332c-0.63,0.181-0.991,0.537-0.991,1.065v11.889h-6.702
	c-0.621,0-0.298,0.72-0.298,1.341v3.387c0,0.436-0.323,1.272,0.298,1.272h6.702v24.969c0,3.271-0.022,7.262,2.546,9.992
	c1.332,1.68,4.513,3.087,8.333,3.087c4.802,0,11.44-2.468,11.44-3.607l-0.179-0.888L203.606,95.958z"/>
<path fill="#004184" d="M313.542,88.517V71.14c0-7.47-3.448-12.395-13.675-12.395c-5.675,0-13.837,2.55-13.837,4.047
	c0,0.438,0.072,0.704,0.258,1.141l1.15,3.109l0.624,0.445c0.792,0,4.882-2.847,10.828-2.847c6.312,0,7.916,2.847,7.916,8.001v3.202
	c-5.516,0.174-23.258,0.446-23.258,15.409c0,7.867,4.514,12.482,11.524,12.482c7.364,0,11.733-4.977,12.812-5.947
	c0.429,1.243,2.019,5.947,3.354,5.947l0.713-0.26l3.453-2.138l0.797-0.708c0-0.53-1.243-2.227-1.59-3.283
	C313.819,94.875,313.542,94.078,313.542,88.517 M306.807,92.746c-1.426,1.243-5.516,5.479-10.135,5.479
	c-4.529,0-6.48-3.974-6.48-7.507c0-9.27,12.699-9.27,16.615-9.362V92.746z"/>
<path fill="#004184" d="M345.989,95.984l-0.624-0.529c-0.811,0-4.398,2.4-8.56,2.4c-5.31,0-5.362-3.639-5.362-7.181V65.669h11.804
	c0.524,0,0.961-0.449,1.139-0.896l1.141-3.507l0.099-0.798c0-0.535-0.438-0.8-0.973-0.8h-13.209V46.426
	c0-0.539,0.053-0.978-0.393-0.978l-0.589,0.082l-4.871,1.335c-0.619,0.169-1.147,0.519-1.147,1.047v11.757h-6.287
	c-0.608,0-0.713,0.747-0.713,1.375v3.379c0,0.441,0.104,1.246,0.713,1.246h6.287v25.005c0,3.279,0.181,7.261,2.765,9.996
	c1.313,1.675,4.597,3.083,8.416,3.083c4.778,0,11.457-2.468,11.457-3.613l-0.143-0.882L345.989,95.984z"/>
<path fill="#004184" d="M366.231,64.641c5.217,0,9.025,4.53,9.387,4.53l0.529-0.534l2.031-3.724l0.272-0.713
	c0-1.323-6.82-5.455-12.749-5.455c-10.893,0-17.976,9.01-17.976,23.826c0,12.976,6.108,21.182,16.652,21.182
	c6.535,0,13.978-3.613,13.978-4.584l-0.258-0.699l-1.506-3.724l-0.534-0.544c-0.529,0-5.145,3.652-10.899,3.652
	c-8.58,0-10.175-8.534-10.175-16.611C354.984,71.123,357.545,64.641,366.231,64.641"/>
<path fill="#004184" d="M403.135,58.652c-6.481,0-10.691,3.704-13.691,5.994V39.501c0-0.434-0.062-1.136-0.685-1.136
	c-0.624,0.085-0.392,0-1.104,0.17l-4.517,1.062c-0.352,0.087-0.694,0.439-0.694,1.058v60.719c0,0.713,0.488,1.295,1.188,1.295h4.615
	c0.721,0,1.196-0.582,1.196-1.295V69.973c2-1.951,6.334-5.421,12.095-5.421c4.789,0,5.905,3.372,5.905,7.19v29.632
	c0,0.713-0.047,1.295,0.666,1.295h4.61c0.722,0,0.724-0.582,0.724-1.295V71.92C413.443,65.533,412.975,58.652,403.135,58.652"/>
</svg>
