<?xml version="1.0" encoding="utf-8"?>
<!-- Generator: Adobe Illustrator 18.1.0, SVG Export Plug-In . SVG Version: 6.00 Build 0)  -->
<svg version="1.1" id="Layer_1" xmlns="http://www.w3.org/2000/svg" xmlns:xlink="http://www.w3.org/1999/xlink" x="0px" y="0px"
	 viewBox="0 0 175.7 138.7" enable-background="new 0 0 175.7 138.7" xml:space="preserve">
<g>
	<path fill="none" d="M128.7,45.2H55.5c-0.4,1-0.7,1.5-1.1,2.3c-2.1,5.3-3.3,10.7-3.8,16.3c0.9,0.4,1.8,0.7,2.6,1
		c4.6,1.9,8.6,4.7,12.3,8.2c3.5,3.7,6.3,7.7,8.3,12.3c2,4.8,3,9.7,3,15c0,5.3-1,10.2-3.1,14.9c3.3,2.3,6.8,4.2,10.6,5.8
		c3.7,1.6,7.2,2.8,11.2,3.3v-0.9c0-6.8,1.5-16,3.9-27.4c3-14.1,7-24.6,11.4-32C115.2,56.5,121.3,50.2,128.7,45.2z"/>
	<path fill="none" d="M157.7,46.8c-15.3,5.1-26.7,14.2-34.4,27c-7.9,13.2-11.8,29.9-11.8,50.3v1.1c6-0.5,11.3-1.8,16.5-4
		c6.8-3,12.8-6.8,18.1-11.9c5.1-5.1,9.2-11.2,11.8-18.1c3-6.9,4.4-14.1,4.4-21.7c0-7.5-1.4-14.9-4.2-22
		C157.8,47.3,157.8,46.9,157.7,46.8z"/>
	<path fill="none" d="M146,29.5c-5.1-5.1-11-9.2-17.9-11.8c-6.8-3-14.2-4.5-21.8-4.5c-0.2,0-0.2,0-0.4,0c-7.6,0-14.6,1.5-21.5,4.3
		c-7,2.8-13,7-18.1,12c-0.9,0.9-1.6,1.7-2.4,2.7h84.5C147.7,31.2,146.9,30.5,146,29.5z"/>
	<path fill="#0091D9" d="M39.4,94.7c-1.6,0-3,0.6-4.3,1.6c-1.2,1.1-1.7,2.4-1.7,4c0,1.6,0.5,3,1.7,4.2c1.1,1.2,2.5,1.8,4.3,1.8
		c1.6,0,2.8-0.6,3.8-1.6c1.1-1.2,1.6-2.4,1.6-4c0-2-0.5-3.3-1.6-4.4C42.2,95.3,41,94.7,39.4,94.7z"/>
	<path fill="#0091D9" d="M15.1,94.2c-1.8,0-3.2,0.5-4,1.6C9.8,97,9.3,98.4,9.3,100c0,1.6,0.5,3,1.8,4.2c1.1,0.9,2.4,1.4,4,1.4
		c1.6,0,3-0.6,4-1.4c1.3-1.2,1.8-2.6,1.8-4.2c0-1.6-0.5-3-1.8-4.3C18.1,94.7,16.7,94.2,15.1,94.2z"/>
	<path fill="#0091D9" d="M170.3,42.7c-3.7-8.6-8.7-16-15.1-22.3C148.9,13.9,141.5,9,133,5.5C124.8,1.8,115.8,0,106.3,0
		c-9.5,0-18.5,1.8-26.9,5.5c-8.6,3.7-16,8.6-22.3,14.9c-6.1,6.1-11,13.7-14.7,22.3c-2.6,6.1-4.4,12.5-5.1,19.1
		c-6.5,0.2-12.5,1.8-18.1,5.1C13.4,70.5,8.6,75.2,5.3,81C1.8,87,0,93.5,0,100.4c0,6.8,1.8,13.2,5.3,19.1c3.3,5.8,8.1,10.5,13.9,13.9
		c6,3.5,12.4,5.3,19.2,5.3c6.8,0,13.4-1.8,19.1-5.3c3.5-1.9,6.5-4.2,9.2-7.2c4,2.8,8.3,5.3,12.8,7.2c8.5,3.5,17.4,5.3,26.9,5.3
		c9.3,0,18.3-1.8,26.7-5.3c8.3-3.7,15.7-8.8,22.2-15.3c6.5-6.1,11.4-13.5,15.1-22.1c3.7-8.3,5.4-17.1,5.4-26.6
		C175.7,59.9,174,51,170.3,42.7z M66.4,29.5c5.1-5.1,11.1-9.2,18.1-12c6.9-2.8,13.9-4.3,21.5-4.3c0.2,0,0.2,0,0.4,0
		c7.5,0,14.9,1.5,21.8,4.5c6.9,2.6,12.9,6.8,17.9,11.8c0.9,0.9,1.6,1.7,2.5,2.7H64C64.8,31.2,65.6,30.5,66.4,29.5z M25.5,110.2h-4
		v-2.5c-2,1.6-3.9,2.3-6,2.3c-3.7,0-6.4-1.1-8.3-3.3c-1.6-2-2.5-4-2.5-6.3c0-2.8,0.9-5.3,2.8-7.2c1.6-2.3,4.2-3.3,7.9-3.3
		c2.3,0,4.5,0.7,6.8,2.3c2.3,1.6,3.4,4.4,3.4,8.1V110.2z M46.8,107.2c-2,2.3-4.3,3.3-7.2,3.3c-3.3,0-6.2-1.1-8.1-3
		c-1.8-1.9-2.9-4.6-2.9-7.5v-1.4V84.2h5v8h-0.1c0.4,0,1.1-0.9,2.1-1.4c0.9-0.6,2-0.8,3.5-0.8c2.8,0,5.3,1.1,7.2,3
		c1.9,1.9,3,4.3,3,7.1C49.2,102.8,48.3,105.3,46.8,107.2z M58.2,104.4c1.1,1.1,2.5,1.5,4,1.5c1.9,0,3.5-0.6,4.4-2.6h5.5
		c-0.7,2-2,4-3.7,5.3c-2,1.2-3.9,2-6.2,2c-2.8,0-5.3-1-7.2-2.9c-2.1-1.9-3.2-4.5-3.2-7.5c0-3,1.1-5.3,3.2-7.2c1.9-1.9,4.4-3,7.2-3
		c1.4,0,2.8,0.4,4.2,1.1c1.4,0.6,2.5,1.4,3.3,2.5c1.1,1.1,1.8,1.9,2.3,3.9h-5.5c-1.1-2-2.5-2.6-4.4-2.6c-1.8,0-3.1,0.4-4,1.5
		c-1.1,1.2-1.6,2.4-1.6,4C56.6,101.8,57.1,103.2,58.2,104.4z M99.4,96.1c-2.5,11.4-3.9,20.6-3.9,27.4v0.9c-4-0.5-7.5-1.7-11.2-3.3
		c-3.8-1.6-7.4-3.5-10.8-5.8c2.1-4.8,3.2-9.7,3.2-14.9c0-5.3-1-10.2-3-15c-1.9-4.6-4.7-8.6-8.2-12.3c-3.7-3.5-7.7-6.3-12.3-8.3
		c-0.9-0.4-1.8-0.7-2.6-1.1c0.5-5.6,1.8-10.9,3.8-16.2c0.4-0.9,0.7-1.3,1.1-2.3h73.1c-7.4,5-13.5,11.3-17.9,18.9
		C106.4,71.5,102.4,82.1,99.4,96.1z M157.8,91.1c-2.6,6.8-6.7,13-11.8,18.1c-5.3,5.1-11.2,9-18,11.9c-5.3,2.3-10.5,3.5-16.5,4v-1.1
		c0-20.3,3.9-37.1,11.8-50.3c7.7-12.8,19.2-22,34.5-27c0.2,0.2,0.1,0.5,0.3,0.7c2.8,7,4.2,14.4,4.2,22
		C162.2,77,160.8,84.2,157.8,91.1z"/>
</g>
</svg>
