<?xml version="1.0" encoding="utf-8"?>
<!-- Generator: Adobe Illustrator 18.1.0, SVG Export Plug-In . SVG Version: 6.00 Build 0)  -->
<svg version="1.1" id="Layer_1" xmlns="http://www.w3.org/2000/svg" xmlns:xlink="http://www.w3.org/1999/xlink" x="0px" y="0px"
	 viewBox="0 0 810.872 803.686" enable-background="new 0 0 810.872 803.686" xml:space="preserve">
<path fill-rule="evenodd" clip-rule="evenodd" fill="#FFFFFF" d="M0.083,779.8c2.912-8.034,6.348-15.482,15.733-18.032
	c2.658-0.722,3.883-3.173,2.98-6.219c-0.392-1.324-1-2.949-0.578-4.094c4.611-12.516,0.361-23.659-4.861-34.799
	c-1.893-4.037-0.736-7.553,3.104-10.343c5.654-4.11,10.894-8.795,16.611-12.808c5.016-3.521,10.268-5.749,17-3.796
	c7.199,2.088,13.217-1.942,15.326-9.578c1.291-4.676,1.6-9.625,2.326-14.457c0.684-4.537,2.186-8.276,8.324-8.146
	c-3.744-1.489-5.625-3.788-4.666-7.417c2.156-8.138,3.041-16.42,3.623-24.795c0.246-3.544,3.059-6.223,5.168-8.994
	c2.424-3.18,4.723-6.488,5.801-10.309c0.789-2.803,2.521-6.068-3.385-6.722c-4.475-0.495-8.646-15.763-5.625-19.214
	c3.008-3.434,6.004-2.391,8.457,2.019c1.809-4.206,1.264-6.806-2.713-8.172c-1.869-0.643-3.609-1.549-3.752-3.678
	c-0.828-12.254-3.33-24.818,7.443-34.699c4.805-4.405,8.959-9.556,14.512-13.09c3.602-2.291,7.277-2.339,11.807-2.431
	c10.156-0.206,18.238,5.3,26.672,8.08c11.938,3.935,21.139,1.35,31.209-2.81c4.594-1.9,8.988-2.037,13.432,0.448
	c6.361,3.56,12.15,2.472,17.172-2.631c4.037-4.103,8.783-5.761,14.525-5.422c10.781,0.636,21.088-0.153,31.049-5.748
	c8.469-4.755,9.98-2.356,18.465,4.05c6.789,5.129,7.094,10.842,6.57,17.577c-1.815,23.413,8.611,41.953,23.539,58.481
	c3.254,3.604,2.693,6.447,1.391,10.049c-6.811,18.838-20.186,32.755-34.463,45.99c-14.025,13.001-28.438,25.646-38.24,42.453
	c-0.936,1.606-1.875,3.736-3.887,3.709c-6.807-0.093-9.078,4.804-11.299,9.778c-2.283,5.106-5.947,8.861-10.734,11.609
	c-6.992,4.013-13.041,8.928-16.809,16.329c-0.908,1.779-2.639,3.274-4.279,4.517c-2.904,2.198-4.729,0.108-6.264-2.103
	c-1.795-2.587-0.779-4.224,1.885-5.428c4.016-1.814,8.311-3.251,11.002-7.129c2.08-2.999,3.615-6.252,1.621-9.752
	c-1.824-3.2-5.154-3.903-8.557-3.501c-4.041,0.477-8.027,2.73-7.869,6.699c0.492,12.308-8.35,17.638-16.521,23.174
	c-9.934,6.729-19.316,14.285-31.74,17.107c-4.605,1.045-8.834,3.868-14.164,3.686c-4.104-0.141-6.248,3.663-8.221,6.846
	c-1.975,3.182-3.906,6.367-6.811,8.815c-2.148,1.811-4.139,2.285-6.93,0.693c-7.648-4.361-16.768-2.008-20.586,5.997
	c-4.588,9.623-11.754,13.537-21.947,12.207c-9.168-1.197-15.805,2.472-20.846,9.799c-6.066,0-12.139-0.156-18.197,0.076
	c-2.441,0.095-2.955-0.438-2.879-2.879C0.226,793.804,0.083,786.8,0.083,779.8z"/>
<path fill-rule="evenodd" clip-rule="evenodd" fill="#FFFFFF" d="M504.083,0c22.469,8.449,44.939,16.896,67.404,25.355
	c2.447,0.922,4.625,1.012,5.863-1.788c2.201-4.972,4.805-9.218,11.408-7.826c7.496,1.581,13.621,4.7,15.947,12.789
	c1.123,3.907-0.223,9.5,3.977,11.349c6.25,2.751,12.104,7.168,19.692,6.315c8.008-0.901,14.84,3.51,22.158,5.671
	c4.016,1.187,7.844,3.012,11.854,4.225c6.143,1.859,12.221,3.542,7.775,11.946c2.631,1.214,3.396-0.873,4.766-1.433
	c5.606-2.283,10.185,0.886,9.301,6.796c-0.49,3.272-1.309,6.288,0.688,9.408c1.746,2.729-0.6,3.814-2.572,4.512
	c-4.332,1.531-5.689,4.571-6.285,8.992c-0.861,6.396-1.863,13.063-8.488,16.777c-2.873,1.612-2.039,4.329-1.539,6.882
	c0.35,1.779-0.252,3.285-1.982,4.035c-1.762,0.765-3.203-0.062-4.338-1.361c-3.229-3.691-4.502-8.088-4.447-12.92
	c0.031-3.009-0.668-5.146-4.01-6.437c-6.051-2.337-11.186-5.879-11.705-13.312c-0.107-1.535-1.029-2.622-2.691-2.662
	c-1.891-0.044-3.732,1.18-3.318,2.775c1.215,4.687-2.01,11.21,5.281,13.565c2.609,0.842,2.406,2.697,0.898,4.315
	c-2.863,3.074-2.047,6.234-1.035,9.764c3.483,12.155,1.354,24.774,2.744,37.126c0.467,4.143,0.096,8.357,0.975,12.518
	c0.766,3.612,1.731,6.251,6.357,5.075c3.578-0.908,4.932,1.828,5.963,4.553c1.539,4.066,3.836,7.434,7.891,9.382
	c3.6,1.73,3.867,3.805,0.404,5.995c-5.74,3.631-3.73,6.553,0.883,9.042c3.275,1.77,6.734,3.194,10.068,4.856
	c1.393,0.694,3.416,1.319,2.312,3.488c-0.852,1.676-2.957,2.168-4.26,1.222c-5.857-4.252-13.994-4.624-18.711-10.532
	c-5.625-7.048-12.775-6.746-20.32-5.026c-3.627,0.826-7.09,2.371-10.717,3.195c-2.891,0.657-4.508,1.986-4.867,5.011
	c-0.324,2.727-1.451,4.846-4.74,5.058c-3.512,0.226-4.787-1.982-6.096-4.667c-2.861-5.873-0.904-12.367-2.275-19.015
	c-3.293,1.72-3.715,4.651-5.008,6.932c-0.801,1.41-1.402,3.974-2.348,4.099c-8.312,1.102-4.904,6.161-3.828,10.488
	c0.844,3.391,1.356,6.936-3.428,7.407c-3.883,0.383-8.721,2.238-10.303-3.918c-0.521-2.032-1.088-4.057-1.764-6.042
	c-0.746-2.198-2.262-3.849-4.691-3.196c-5.332,1.433-8.935-1.195-12.986-4.5c0.916,2.842,2.121,5.626,2.695,8.534
	c1.736,8.801-4.188,12.872-12.754,11.812c-10.195-1.259-17.807-10.332-28.996-8.115c-4.264,0.844-7.176,1.762-9.309,5.821
	c-2.881,5.486-5.611,11.491-12.896,12.745c-0.734,0.127-1.896,1.111-1.893,1.693c0.061,9.908-8.619,14.839-12.775,22.321
	c-2.205,3.972-6.154,6.212-11.35,4.085c-6.695-2.738-7.605-5.165-3.855-11.536c2.365-4.02,4.74-8.042,5.875-12.637l0.008-0.013
	c1.363-3.463,2.658-6.953,4.107-10.38c1.215-2.872,0.938-5.164-1.314-7.605c-4.152-4.498-5.52-10.193-5.57-16.167
	c-0.088-10.482-0.154-20.911-1.355-31.395c-1.9-16.626,4.959-31.029,13.635-44.598c8.145-12.733,17.859-24.593,21.086-39.934
	c0.662-3.157,2.449-6.22-0.859-8.98c-3.082-2.57-5.395-0.684-8.152,0.84c-4.887,2.7-8.295-1.284-11.982-3.425
	c-3.588-2.084-2.205-5.076-1.168-8.004C490.2,41.311,493.685,20.283,499.884,0C501.284,0,502.685,0,504.083,0z"/>
<path fill-rule="evenodd" clip-rule="evenodd" fill="#FFFFFF" d="M469.079,227.507c-11.221,8.224-19.023,18.341-18.228,33.158
	c0.103,1.944-0.246,3.617-1.42,5.24c-10.088,13.932-17.734,29.579-30.014,41.983c-9,9.088-10.566,21.447-13.617,33.088
	c-0.213,0.809,0.141,1.86,0.475,2.701c5.752,14.4,0.021,27.658-4.799,40.649c-2.516,6.777-10.805,7.076-16.387,6.714
	c-11.512-0.746-20.574,2.253-27.803,11.104c-0.287,0.353-0.711,0.602-1.096,0.865c-3.73,2.563-7.896,5.162-12.277,3.088
	c-3.818-1.806-3.459-6.652-3.295-10.083c0.516-10.686,1.787-21.337,2.816-31.999c0.139-1.415,0.688-2.887,2.195-3.309
	c4.535-1.266,5.164-3.434,1.957-6.896c-0.553-0.599-1.072-2.005-0.758-2.511c6.65-10.741,3.381-23.101,5.637-34.564
	c1.978-10.061,4.582-19.4,12.291-26.793c3.67-3.521,6.904-7.602,6.383-13.429c-0.129-1.46,0.586-3.507,1.65-4.476
	c7.641-6.97,20.625-35.96,24.33-45.199c8.748-21.799,21.43-41.353,34.119-60.952c8.346-12.887,14.701-26.599,12.365-42.711
	c-0.271-1.87-0.029-3.617,1.461-5.154c10.783-11.121,16.818-21.279,19.648-36.764c1.746-9.546,7.057-11.174,14.24-5.291
	c1.816,1.487,3.838,1.416,5.928,1.534c8.775,0.493,11.385,5.422,6.252,12.797c-5.742,8.251-9.906,13.956-14.531,22.891
	c-9.812,18.962-16.291,38.61-14.383,60.401c0.592,6.715,0.287,13.532,0.037,20.289c-0.223,6,0.699,11.547,4.022,16.677
	c3.361,5.186,3.31,11.051,2.81,16.936L469.079,227.507z"/>
<path fill-rule="evenodd" clip-rule="evenodd" fill="#FFFFFF" d="M463.214,691.768c-0.246-6.494,4.164-11.113,12.258-12.545
	c4.35-0.769,9.543,0.059,12.992-2.058c9.354-5.737,18.775-6.635,29.065-3.903c2.656,0.704,5.188-0.925,6.629-3.128
	c3.107-4.76,7.439-5.738,12.693-5.238c10.373,0.988,19.172-2.946,27.111-9.22c3.291-2.603,6.631-5.173,9.707-8.017
	c7.555-6.978,16.133-9.366,26.607-9.88c23.695-1.164,44.254-10.001,58.084-30.594c1.637-2.438,3.652-2.793,5.965-2.487
	c6.01,0.795,10.93-1.071,15.314-5.176c1.375-1.288,3.037-3.92,5.545-0.375c1.328,1.882,1.938-0.931,2.44-1.809
	c1.951-3.418,2.594-7.548,5.56-10.417c2.44-2.359,5.236-4.533,8.621-2.192c3.25,2.246,3.184,5.699,1.189,8.705
	c-2.996,4.513-2.414,8.149,1.76,11.404c1.158,0.904,2.457,1.555,3.857,0.892c1.783-0.844,0.967-2.386,0.586-3.65
	c-1.248-4.126-1.297-8.33-0.389-12.453c0.666-3.031,0.56-5.468-2.174-7.406c-1.145-0.812-2.24-2.04-1.695-3.54
	c0.652-1.794,2.48-1.959,4.125-2.022c2.541-0.098,5.449-0.754,7.326,1.345c5.603,6.262,12.549,5.594,19.408,3.663
	c6.483-1.825,10.336-0.018,13.734,5.807c3.949,6.772,7.725,13.075,6.211,21.506c-0.553,3.071-1.221,4.711-4.188,5.223
	c-0.688,0.118-1.457,0.073-2.057,0.371c-14.16,7.023-28.935,9.254-44.484,5.94c-1.072-0.229-2.393,0.034-3.436,0.462
	c-23.953,9.829-50.566,10.332-74.18,21.751c-15.033,7.271-31.051,12.089-45.065,21.969c-11.852,8.358-26.855,10.41-40.666,14.536
	c-23.004,6.87-46.215,13.065-69.373,19.413C464.345,700.824,463.529,700.062,463.214,691.768z"/>
<path fill-rule="evenodd" clip-rule="evenodd" fill="#FFFFFF" d="M614.777,613.356c1.32-5.453,6.066-6.655,10.41-8.193
	c6.338-2.245,10.56-13.562,7.09-19.392c-5.516-9.262-6.037-9.488-16.84-5.908c-1.713,0.567-2.764-0.038-3.586-1.189
	c-1.473-2.064-2.912-4.095-2.006-7.011c3.771-12.113,9.027-23.896,7.443-37.154c-0.537-4.497,1.953-4.754,5.016-2.186
	c1.459,1.224,2.742,2.521,4.908,1.568c5.332-2.345,7.379-1.207,7.93,5.031c0.395,4.43-0.406,9.402,6.641,5.392
	c1.982-1.126,3.059,0.499,3.787,1.953c2.635,5.262,3.644,10.732,2.107,17.156c-3.215-1.68-4.236-11.045-9.191-1.901
	c4.029,1.317,6.147,3.351,3.902,8.372c-2.354,5.262,0.971,10.927,0.725,16.479c-0.027,0.633,0.822,1.358,0.703,1.923
	c-1.25,5.937-5.397,10.575-6.008,17.177c-0.756,8.143-8.887,7.22-14.971,8.034c-2.307,0.308-4.607,0.665-6.908,1
	C615.546,614.124,615.159,613.741,614.777,613.356z"/>
<path fill-rule="evenodd" clip-rule="evenodd" fill="#FFFFFF" d="M666.982,583.113c-6.473-5.907,0.059-10.681,1.725-15.758
	c1.754-5.339,6.566-7.952,11.77-8.596c2.801-0.346,4.389,3.094,6.047,5.237c9.123,11.788,8.119,16.294-5.16,23.467
	c-3.389,1.829-6.826,2.998-9.238,6.741c-2.065,3.205-6.686,3.143-10.317,1.842c-3.242-1.165-2.932-4.587-2.826-7.245
	C659.175,583.839,664.718,585.871,666.982,583.113z"/>
<path fill-rule="evenodd" clip-rule="evenodd" fill="#FFFFFF" d="M545.191,247.477c-11.881,0.044-18.885-10.076-13.527-20.287
	c1.117-2.129,2.465-3.612,4.869-2.689c8.295,3.18,16.41,6.73,21.545,14.582c2.662,4.074,2.518,7.017-3.281,7.463
	C551.784,246.777,548.786,247.124,545.191,247.477z"/>
<path fill-rule="evenodd" clip-rule="evenodd" fill="#FFFFFF" d="M576.876,570.926c-2.59,0.205-2.828-0.918-2.646-2.976
	c1.094-12.451,7.205-19.065,19.039-18.464c2.633,0.134,5.481,5.022,7.369,8.23c1.684,2.864-1.539,3.898-3.467,4.896
	C590.577,566.024,583.726,568.847,576.876,570.926z"/>
<path fill-rule="evenodd" clip-rule="evenodd" fill="#FFFFFF" d="M690.368,140.318c-0.188,3.165,0.607,6.307-2.773,7.048
	c-2.758,0.605-4.15-1.964-5.133-3.96c-4.678-9.506-7.478-19.539-7.625-30.201c-0.027-1.818-0.082-4.246,2.178-4.588
	c2.486-0.377,2.73,2.182,3.062,3.883c0.779,3.996,2.666,6.883,5.633,9.934C690.486,127.351,688.65,134.793,690.368,140.318z"/>
<path fill-rule="evenodd" clip-rule="evenodd" fill="#FFFFFF" d="M570.286,558.628c-0.4,9.408-6.49,14.822-15.709,14.084
	c-2.248-0.18-3.736-0.963-3.143-3.403c1.613-6.632,3.477-12.947,10.734-16.089C568.665,550.407,570.593,551.432,570.286,558.628z"/>
<path fill-rule="evenodd" clip-rule="evenodd" fill="#FFFFFF" d="M598.943,573.279c2.248,2.833,4.039,4.69,6.682,5.715
	c3.293,1.278,4.121,4.321,3.146,7.582c-1.219,4.078-1.084,8.952-6.527,10.634c-3.725,1.153-5.643-1.123-7.752-3.279
	c-0.978-1-2.307-2.481-1.26-3.625C597.39,585.756,597.323,579.756,598.943,573.279z"/>
<path fill-rule="evenodd" clip-rule="evenodd" fill="#FFFFFF" d="M654.984,561.684c-0.117-5.216,8.156-12.254,12.018-11.25
	c2.594,0.674,4.432,2.601,2.648,5.104c-3.783,5.311-4.818,11.42-6.178,17.503c-0.346,1.552-0.895,3.351-2.984,3.228
	c-1.642-0.097-2.092-1.601-2.453-2.958C656.907,569.072,655.806,564.828,654.984,561.684z"/>
<path fill-rule="evenodd" clip-rule="evenodd" fill="#FFFFFF" d="M573.782,627.888c-0.621,4.15-2.123,8.244-4.578,11.97
	c-0.902,1.368-1.926,2.82-3.844,2.373c-2.268-0.527-2.566-2.57-2.557-4.401c0.02-3.871,1.658-7.733-2.064-11.25
	c-1.44-1.359-0.332-4.487,1.435-6.286c2.061-2.097,4.211-0.997,6.377-0.044C571.8,621.676,573.874,623.87,573.782,627.888z"/>
<path fill-rule="evenodd" clip-rule="evenodd" fill="#FFFFFF" d="M586.724,546.582c-1.645,0.149-3.481,0.233-4.022-1.735
	c-0.766-2.783-0.684-5.753,1.682-7.706c2.113-1.746,4.648-3.042,7.137-4.252c3.02-1.469,6.562-4.289,9.373-0.61
	c2.607,3.408-0.564,6.576-2.447,9.321C595.695,545.619,591.236,546.309,586.724,546.582z"/>
<path fill-rule="evenodd" clip-rule="evenodd" fill="#FFFFFF" d="M337.054,442.52c-3.299,0.099-5.633-1.252-4.025-4.052
	c2.867-4.996,5.922-10.217,11.832-12.365c2.689-0.975,5.56-1.49,7.135,2.026c1.363,3.043,1.648,5.871-1.521,8.039
	C346.224,439.076,341.89,441.804,337.054,442.52z"/>
<path fill-rule="evenodd" clip-rule="evenodd" fill="#FFFFFF" d="M614.777,613.356c0.383,0.385,0.77,0.768,1.152,1.15
	c0.725,1.442,1.504,2.861,2.168,4.332c1.25,2.781,0.664,5.003-2.264,6.23c-2.807,1.176-5.514,1.438-6.914-2.049
	c-0.992-2.464-1.682-4.939-5.295-3.233c-1.518,0.715-3.285,0.561-3.99-1.454c-0.609-1.741,0.158-3.201,1.424-4.331
	C605.437,610.106,610.019,609.65,614.777,613.356z"/>
<path fill="#FFFFFF" d="M809.708,320.794c1.094-6.913-2.281-11.162-7.484-15.239c-18.908-14.811-37.522-30.034-56.309-45.002
	c-3.012-2.398-6.094-7.263-9.629-5.871c-4.453,1.753-4.637,7.651-5.377,12.207c-0.445,2.735-0.107,5.59-0.308,8.378
	c-0.202,2.824,1.089,5.897-0.737,8.356c-14.654-7.181-16.37-22.912-24.169-34.47c-0.926-1.376,0.341-2.584,0.708-3.889
	c1.607-5.736-2.606-14.872-7.934-17.145c-3.418-1.454-6.496-1.837-6.803,3.404c-0.166,2.855,0.799,6.768-3.48,7.297
	c-5.312,0.656-11.697,1.469-14.68-3.87c-4.022-7.201-10.035-8.322-17.039-8.408c-5.666-0.068-11.094-0.793-15.955-4.187
	c-5.586-3.9-16.416,1.27-16.523,8.276c-0.09,5.732-3.643,9.686-7.498,10.369c-5.361,0.953-5.666-4.87-6.26-9.013
	c-0.631-4.392-2.689-5.596-6.691-3.354c-3.695,2.07-7.611,3.564-11.951,3.517c-4.006-0.045-5.592,1.921-4.6,5.757
	c0.893,3.441-0.527,5.649-3.072,7.851c-3.932,3.401-3.518,7.421,1.482,8.72c6.385,1.658,7.178,5.523,6.883,10.898
	c-0.19,3.479-0.047,7.007,0.299,10.479c0.457,4.607,1.799,8.721,7.172,9.953c4.713,1.078,2.357,3.604,0.836,5.548
	c-7.102,9.065-16.281,8.233-24.219-2.084c-2.451-3.18-4.701-5.633,1.205-8.311c6.096-2.765,5.695-7.86-0.084-11.305
	c-3.605-2.148-7.922-3.714-10.572-6.725c-5.709-6.489-12.746-5.678-19.971-5.327c-4.287,0.208-6.514,1.798-5.668,6.562
	c0.461,2.6,1.416,6.002-2.56,6.896c-3.969,0.89-7.959,0.674-11.17-2.334c-0.568-0.532-1.068-2.187-0.851-2.354
	c6.689-5.158,1.025-7.928-2.111-11.131c-1.125-1.148-1.508-2.35-0.688-3.756c2.246-3.857-0.557-5.895-3.17-7.194
	c-5.029-2.496-11.357-1.408-15.904-5.82c-1.049-1.016-2.93,0.947-3.889,2.26c-5.988,8.186-14.719,13.607-21.285,21.205
	c-1.652,1.913-3.709,3.273-6.119,1.965c-2.682-1.457-4.951-2.527-7.358,0.354c-2.441,2.926-3.758,5.94-1.461,9.523
	c1.565,2.436,0.793,4.416-1.082,6.217c-14.629,14.055-36.49,43.983-36.256,49.116c0.205,4.532,8.107,2.858,12.295,2.932
	c11.229,0.193,21.906,2.011,27.621,13.884c1.592,3.307,4.676,5.764,8.389,7.079c7.373,2.612,11.461,8.19,12.238,15.645
	c1.021,9.786,5.381,17.883,11.685,24.902c10.461,11.643,18.123,24.853,23.371,39.481c1.83,5.1,4.473,5.982,8.914,3.284
	c9.367-5.686,18.689-11.46,28.207-16.885c8.518-4.854,16.225-1.256,16.269,8.457c0.047,9.772,3.492,18.137,6.973,26.769
	c4.223,10.467,5.834,20.815,0.373,31.699c-4.892,9.754-2.701,13.418,8.006,16.559c1.107,0.324,2.236,0.707,3.219,1.292
	c1.199,0.716,2.416,1.69,2.058,3.314c-0.326,1.488-1.703,1.107-2.828,1.28c-3.482,0.538-4.711,3.072-4.023,6.074
	c0.76,3.332,3.494,5.475,6.82,4.487c4.961-1.47,12.768,1.72,14.291-5.058c0.959-4.27,1.94-4.624,5.436-5.315
	c3.248-0.642,6.17-1.742,9.41-0.156c3.014,1.475,4.682-0.027,5.266-4.604c3.807,9.56,10.856,13.401,18.137,16.533
	c18.807,8.089,35.391,19.759,52.023,31.391c1.523,1.066,3.096,2.039,3.725,4.002c0.516,1.619-0.31,4.274,2.344,4.43
	c2.316,0.136,4.092-1.686,4.67-3.678c3.016-10.363,11.68-13.709,20.426-17.337c9.375-3.89,11.279-14.677,4.371-22.147
	c-1.545-1.671-4.106-2.63-5.016-5.961c5.873,1.733,9.209,4.977,11.547,9.553c0.889,1.737,0.961,4.918,3.543,4.543
	c2.644-0.383,3.182-3.576,3.103-5.695c-0.24-6.53,3.688-9.005,9.029-10.555c2.686-0.782,5.25-2.128,7.977-2.581
	c6.748-1.126,8.152-4.901,6.539-11.031c-2.736-10.398-4.898-20.904-3.459-31.787c1.16-8.772,2.641-17.527,3.305-26.34
	c1.443-19.11,1.746-38.253-2.992-57.022c-2.75-10.894-1.357-13.73,9.768-16.522c2.486-0.623,4.998-1.225,7.533-1.561
	c8.037-1.064,13.885-5.302,17.67-12.353c1.764-3.285,3.264-6.61,5.264-9.919c0-4.199,0-8.399,0-12.6
	C809.872,325.468,809.347,323.066,809.708,320.794z"/>
<path fill="#FFFFFF" d="M428.611,350.5c2.195,8.192,1.107,15.619-3.635,22.675c-3.791,5.644-6.861,11.679-7.945,18.511
	c-0.357,2.251-1.262,4.184-3.541,4.739c-6.777,1.657-13.312,5.659-20.266,4.911c-9.52-1.023-14.184,3.972-17.771,11.272
	c-1.74,3.544-3.605,7.177-4.44,10.982c-1.939,8.842-7.006,15.032-14.607,19.505c-2.006,1.18-3.93,2.523-5.805,3.906
	c-8.285,6.105-8.729,11.592-0.967,18.074c3.869,3.233,8.033,5.925,7.459,14.114c5.117-9.486,11.895-5.157,17.508-6.819
	c0.199,3.024-3.689,2.546-3.213,4.477c1.627,6.612-5.103,5.996-7.033,6.249c-9.838,1.285-15.775,8.558-23.207,13.477
	c-1.318,0.872-1.842,2.472-2.303,4.147c-1.334,4.858,1.367,12.642-8.186,12.007c-0.922-0.061-1.553,1.07-1.4,2.085
	c0.566,3.748-2.043,4.822-4.777,5.771c-2.471,0.858-3.508,2.808-4.35,5.098c-1.691,4.596-3.402,9.194-5.375,13.674
	c-6.627,15.048-4.801,29.511,2.533,43.766c4.744,9.227,11.98,15.502,22.359,15.63c13.254,0.163,22.77,7.202,32.443,14.628
	c4.109,3.154,4.949,7.008,3.566,11.768c-2.766,9.51-2.732,9.615,7.236,10.823c3.527,0.429,5.41,2.967,5.125,5.551
	c-0.408,3.7-3.693,1.287-5.68,1.226c-6.938-0.212-13.783-2.46-20.824-0.364c-6.871,2.044-8.43,7.119-3.43,12.305
	c2.312,2.398,5.295,3.801,8.406,4.874c9.973,3.439,20.031,3.628,30.324,1.331c22.537-5.029,45.154-9.606,68.387-9.997
	c2.85-0.048,6.645,1.032,7.883-2.745c1.297-3.96-0.709-7.21-4.164-9.583c9.564-4.484,9.57-4.505,19.543-1.9
	c3.609,0.942,7.16,2.12,10.789,2.973c1.791,0.421,4.678,0.503,4.217-1.989c-1.684-9.11,5.051-8.38,10.315-9.323
	c6.322-1.136,12.141,5.403,10.432,11.556c-1.674,6.019,0.762,9.144,6.996,7.976c5.934-1.111,11.623-3.493,17.537-4.758
	c5.49-1.176,6.566-4.452,5.68-9.244c-2.18-11.76-5.928-23.019-10.824-33.911c-1.684-3.746-3.988-5.846-8.668-5.08
	c-3.467,0.566-7.262,0.835-11.312-0.794c2.334-3.414,4.438-6.428,8.059-6.916c5.148-0.691,4.943-3.378,3.102-6.771
	c-2.445-4.503-5.301-8.784-7.711-13.304c-1.031-1.937-2.436-5.19,1.51-5.153c5.293,0.052,7.094-3.46,9.482-6.939
	c3.562-5.188,7.365-10.216,11.172-15.23c2.016-2.654,4.432-4.398,8.119-4.743c7.992-0.745,9.564-4.116,5.879-11.163
	c-0.836-1.596-2.676-2.7-2.439-5.709c4.883,1.563,9.191-3.301,14.529-0.321c2.279,1.272,4.361-0.44,5.141-3.189
	c0.94-3.307,0.348-6.363-0.65-9.576c-1.854-5.984-4.363-12.257-0.863-18.289c6.295-10.855,4.689-21.429-0.066-32.145
	c-3.5-7.883-6.453-15.716-6.311-24.762c0.131-8.417-4.664-10.366-12.057-5.95c-9.01,5.378-17.879,11.003-27.019,16.147
	c-8.719,4.908-10.961,3.988-14.301-5.466c-4.961-14.044-12.326-26.633-22.191-37.762c-6.805-7.676-11.637-16.214-12.889-26.625
	c-0.771-6.426-3.693-11.501-10.443-13.519c-3.986-1.192-7.322-3.711-9.027-7.327c-5.213-11.057-15.029-12.671-25.553-13.57
	c-1.57-0.134-11.43-1.302-12.619,1.802C425.708,339.589,427.532,346.473,428.611,350.5z"/>
</svg>
